<svg width="162" height="546" viewBox="0 0 162 546" fill="none" xmlns="http://www.w3.org/2000/svg">
    <rect x="1" width="161" height="136" fill="#86EFAC"/>
    <rect x="1" y="205" width="161" height="136" fill="#86EFAC"/>
    <rect y="410" width="161" height="136" fill="#86EFAC"/>
    <path d="M79.9393 206.061C80.5251 206.646 81.4749 206.646 82.0607 206.061L91.6066 196.515C92.1924 195.929 92.1924 194.979 91.6066 194.393C91.0208 193.808 90.0711 193.808 89.4853 194.393L81 202.879L72.5147 194.393C71.9289 193.808 70.9792 193.808 70.3934 194.393C69.8076 194.979 69.8076 195.929 70.3934 196.515L79.9393 206.061ZM79.5 136L79.5 205H82.5L82.5 136H79.5Z" fill="#166534"/>
    <path d="M78.9393 411.061C79.5251 411.646 80.4749 411.646 81.0607 411.061L90.6066 401.515C91.1924 400.929 91.1924 399.979 90.6066 399.393C90.0208 398.808 89.0711 398.808 88.4853 399.393L80 407.879L71.5147 399.393C70.9289 398.808 69.9792 398.808 69.3934 399.393C68.8076 399.979 68.8076 400.929 69.3934 401.515L78.9393 411.061ZM78.5 341L78.5 410H81.5L81.5 341H78.5Z" fill="#166534"/>
    <path d="M34.9771 61.816H38.8811V63H33.5211V51.848H34.9771V61.816ZM44.2513 63.144C43.43 63.144 42.6833 62.9573 42.0113 62.584C41.35 62.2107 40.8273 61.6827 40.4433 61C40.07 60.3067 39.8833 59.5067 39.8833 58.6C39.8833 57.704 40.0753 56.9147 40.4593 56.232C40.854 55.5387 41.3873 55.0107 42.0593 54.648C42.7313 54.2747 43.4833 54.088 44.3153 54.088C45.1473 54.088 45.8993 54.2747 46.5713 54.648C47.2433 55.0107 47.7713 55.5333 48.1553 56.216C48.55 56.8987 48.7473 57.6933 48.7473 58.6C48.7473 59.5067 48.5446 60.3067 48.1393 61C47.7446 61.6827 47.206 62.2107 46.5233 62.584C45.8406 62.9573 45.0833 63.144 44.2513 63.144ZM44.2513 61.864C44.774 61.864 45.2646 61.7413 45.7233 61.496C46.182 61.2507 46.55 60.8827 46.8273 60.392C47.1153 59.9013 47.2593 59.304 47.2593 58.6C47.2593 57.896 47.1206 57.2987 46.8433 56.808C46.566 56.3173 46.2033 55.9547 45.7553 55.72C45.3073 55.4747 44.822 55.352 44.2993 55.352C43.766 55.352 43.2753 55.4747 42.8273 55.72C42.39 55.9547 42.038 56.3173 41.7713 56.808C41.5046 57.2987 41.3713 57.896 41.3713 58.6C41.3713 59.3147 41.4993 59.9173 41.7553 60.408C42.022 60.8987 42.374 61.2667 42.8113 61.512C43.2486 61.7467 43.7286 61.864 44.2513 61.864ZM54.2777 54.088C55.035 54.088 55.6964 54.2533 56.2617 54.584C56.8377 54.9147 57.2644 55.3307 57.5417 55.832V54.232H59.0137V63.192C59.0137 63.992 58.843 64.7013 58.5017 65.32C58.1604 65.9493 57.6697 66.44 57.0297 66.792C56.4004 67.144 55.6644 67.32 54.8217 67.32C53.6697 67.32 52.7097 67.048 51.9417 66.504C51.1737 65.96 50.7204 65.2187 50.5817 64.28H52.0217C52.1817 64.8133 52.5124 65.24 53.0137 65.56C53.515 65.8907 54.1177 66.056 54.8217 66.056C55.6217 66.056 56.2724 65.8053 56.7737 65.304C57.2857 64.8027 57.5417 64.0987 57.5417 63.192V61.352C57.2537 61.864 56.827 62.2907 56.2617 62.632C55.6964 62.9733 55.035 63.144 54.2777 63.144C53.499 63.144 52.7897 62.952 52.1497 62.568C51.5204 62.184 51.0244 61.6453 50.6617 60.952C50.299 60.2587 50.1177 59.4693 50.1177 58.584C50.1177 57.688 50.299 56.904 50.6617 56.232C51.0244 55.5493 51.5204 55.0213 52.1497 54.648C52.7897 54.2747 53.499 54.088 54.2777 54.088ZM57.5417 58.6C57.5417 57.9387 57.4084 57.3627 57.1417 56.872C56.875 56.3813 56.5124 56.008 56.0537 55.752C55.6057 55.4853 55.1097 55.352 54.5657 55.352C54.0217 55.352 53.5257 55.48 53.0777 55.736C52.6297 55.992 52.2724 56.3653 52.0057 56.856C51.739 57.3467 51.6057 57.9227 51.6057 58.584C51.6057 59.256 51.739 59.8427 52.0057 60.344C52.2724 60.8347 52.6297 61.2133 53.0777 61.48C53.5257 61.736 54.0217 61.864 54.5657 61.864C55.1097 61.864 55.6057 61.736 56.0537 61.48C56.5124 61.2133 56.875 60.8347 57.1417 60.344C57.4084 59.8427 57.5417 59.2613 57.5417 58.6ZM62.2262 52.808C61.9489 52.808 61.7142 52.712 61.5222 52.52C61.3302 52.328 61.2342 52.0933 61.2342 51.816C61.2342 51.5387 61.3302 51.304 61.5222 51.112C61.7142 50.92 61.9489 50.824 62.2262 50.824C62.4929 50.824 62.7169 50.92 62.8982 51.112C63.0902 51.304 63.1862 51.5387 63.1862 51.816C63.1862 52.0933 63.0902 52.328 62.8982 52.52C62.7169 52.712 62.4929 52.808 62.2262 52.808ZM62.9302 54.232V63H61.4742V54.232H62.9302ZM69.6837 54.072C70.7504 54.072 71.6144 54.3973 72.2757 55.048C72.937 55.688 73.2677 56.616 73.2677 57.832V63H71.8277V58.04C71.8277 57.1653 71.609 56.4987 71.1717 56.04C70.7344 55.5707 70.137 55.336 69.3797 55.336C68.6117 55.336 67.9984 55.576 67.5397 56.056C67.0917 56.536 66.8677 57.2347 66.8677 58.152V63H65.4117V54.232H66.8677V55.48C67.1557 55.032 67.545 54.6853 68.0357 54.44C68.537 54.1947 69.0864 54.072 69.6837 54.072ZM81.6877 55.432V60.6C81.6877 61.0267 81.7784 61.3307 81.9597 61.512C82.141 61.6827 82.4557 61.768 82.9037 61.768H83.9757V63H82.6637C81.853 63 81.245 62.8133 80.8397 62.44C80.4344 62.0667 80.2317 61.4533 80.2317 60.6V55.432H79.0957V54.232H80.2317V52.024H81.6877V54.232H83.9757V55.432H81.6877ZM89.5638 63.144C88.7425 63.144 87.9958 62.9573 87.3238 62.584C86.6625 62.2107 86.1398 61.6827 85.7558 61C85.3825 60.3067 85.1958 59.5067 85.1958 58.6C85.1958 57.704 85.3878 56.9147 85.7718 56.232C86.1665 55.5387 86.6998 55.0107 87.3718 54.648C88.0438 54.2747 88.7958 54.088 89.6278 54.088C90.4598 54.088 91.2118 54.2747 91.8838 54.648C92.5558 55.0107 93.0838 55.5333 93.4678 56.216C93.8625 56.8987 94.0598 57.6933 94.0598 58.6C94.0598 59.5067 93.8571 60.3067 93.4518 61C93.0571 61.6827 92.5185 62.2107 91.8358 62.584C91.1531 62.9573 90.3958 63.144 89.5638 63.144ZM89.5638 61.864C90.0865 61.864 90.5771 61.7413 91.0358 61.496C91.4945 61.2507 91.8625 60.8827 92.1398 60.392C92.4278 59.9013 92.5718 59.304 92.5718 58.6C92.5718 57.896 92.4331 57.2987 92.1558 56.808C91.8785 56.3173 91.5158 55.9547 91.0678 55.72C90.6198 55.4747 90.1345 55.352 89.6118 55.352C89.0785 55.352 88.5878 55.4747 88.1398 55.72C87.7025 55.9547 87.3505 56.3173 87.0838 56.808C86.8171 57.2987 86.6838 57.896 86.6838 58.6C86.6838 59.3147 86.8118 59.9173 87.0678 60.408C87.3345 60.8987 87.6865 61.2667 88.1238 61.512C88.5611 61.7467 89.0411 61.864 89.5638 61.864ZM104.064 63.144C103.242 63.144 102.496 62.9573 101.824 62.584C101.162 62.2107 100.64 61.6827 100.256 61C99.8825 60.3067 99.6958 59.5067 99.6958 58.6C99.6958 57.704 99.8878 56.9147 100.272 56.232C100.666 55.5387 101.2 55.0107 101.872 54.648C102.544 54.2747 103.296 54.088 104.128 54.088C104.96 54.088 105.712 54.2747 106.384 54.648C107.056 55.0107 107.584 55.5333 107.968 56.216C108.362 56.8987 108.56 57.6933 108.56 58.6C108.56 59.5067 108.357 60.3067 107.952 61C107.557 61.6827 107.018 62.2107 106.336 62.584C105.653 62.9573 104.896 63.144 104.064 63.144ZM104.064 61.864C104.586 61.864 105.077 61.7413 105.536 61.496C105.994 61.2507 106.362 60.8827 106.64 60.392C106.928 59.9013 107.072 59.304 107.072 58.6C107.072 57.896 106.933 57.2987 106.656 56.808C106.378 56.3173 106.016 55.9547 105.568 55.72C105.12 55.4747 104.634 55.352 104.112 55.352C103.578 55.352 103.088 55.4747 102.64 55.72C102.202 55.9547 101.85 56.3173 101.584 56.808C101.317 57.2987 101.184 57.896 101.184 58.6C101.184 59.3147 101.312 59.9173 101.568 60.408C101.834 60.8987 102.186 61.2667 102.624 61.512C103.061 61.7467 103.541 61.864 104.064 61.864ZM118.25 54.232V63H116.794V61.704C116.517 62.152 116.128 62.504 115.626 62.76C115.136 63.0053 114.592 63.128 113.994 63.128C113.312 63.128 112.698 62.9893 112.154 62.712C111.61 62.424 111.178 61.9973 110.858 61.432C110.549 60.8667 110.394 60.1787 110.394 59.368V54.232H111.834V59.176C111.834 60.04 112.053 60.7067 112.49 61.176C112.928 61.6347 113.525 61.864 114.282 61.864C115.061 61.864 115.674 61.624 116.122 61.144C116.57 60.664 116.794 59.9653 116.794 59.048V54.232H118.25ZM122.165 55.656C122.421 55.1547 122.783 54.7653 123.253 54.488C123.733 54.2107 124.314 54.072 124.997 54.072V55.576H124.613C122.981 55.576 122.165 56.4613 122.165 58.232V63H120.709V54.232H122.165V55.656ZM47.1358 81.24C47.7864 81.3787 48.3091 81.704 48.7038 82.216C49.0984 82.7173 49.2958 83.2933 49.2958 83.944C49.2958 84.8827 48.9651 85.6293 48.3038 86.184C47.6531 86.728 46.7411 87 45.5678 87H40.3358V75.768H45.3918C46.5331 75.768 47.4238 76.0293 48.0638 76.552C48.7144 77.0747 49.0398 77.784 49.0398 78.68C49.0398 79.3413 48.8638 79.8907 48.5118 80.328C48.1704 80.7653 47.7118 81.0693 47.1358 81.24ZM43.0718 80.312H44.8638C45.3118 80.312 45.6531 80.216 45.8878 80.024C46.1331 79.8213 46.2558 79.528 46.2558 79.144C46.2558 78.76 46.1331 78.4667 45.8878 78.264C45.6531 78.0613 45.3118 77.96 44.8638 77.96H43.0718V80.312ZM45.0878 84.792C45.5464 84.792 45.8984 84.6907 46.1438 84.488C46.3998 84.2747 46.5278 83.9707 46.5278 83.576C46.5278 83.1813 46.3944 82.872 46.1278 82.648C45.8718 82.424 45.5144 82.312 45.0558 82.312H43.0718V84.792H45.0878ZM53.6186 79.56C53.9386 79.0693 54.3386 78.6853 54.8186 78.408C55.2986 78.12 55.832 77.976 56.4186 77.976V80.872H55.6666C54.984 80.872 54.472 81.0213 54.1306 81.32C53.7893 81.608 53.6186 82.12 53.6186 82.856V87H50.8826V78.072H53.6186V79.56ZM66.1424 82.392C66.1424 82.648 66.1264 82.9147 66.0944 83.192H59.9024C59.945 83.7467 60.121 84.1733 60.4304 84.472C60.7504 84.76 61.1397 84.904 61.5984 84.904C62.281 84.904 62.7557 84.616 63.0224 84.04H65.9344C65.785 84.6267 65.513 85.1547 65.1184 85.624C64.7344 86.0933 64.249 86.4613 63.6624 86.728C63.0757 86.9947 62.4197 87.128 61.6944 87.128C60.8197 87.128 60.041 86.9413 59.3584 86.568C58.6757 86.1947 58.1424 85.6613 57.7584 84.968C57.3744 84.2747 57.1824 83.464 57.1824 82.536C57.1824 81.608 57.369 80.7973 57.7424 80.104C58.1264 79.4107 58.6597 78.8773 59.3424 78.504C60.025 78.1307 60.809 77.944 61.6944 77.944C62.5584 77.944 63.3264 78.1253 63.9984 78.488C64.6704 78.8507 65.193 79.368 65.5664 80.04C65.9504 80.712 66.1424 81.496 66.1424 82.392ZM63.3424 81.672C63.3424 81.2027 63.1824 80.8293 62.8624 80.552C62.5424 80.2747 62.1424 80.136 61.6624 80.136C61.2037 80.136 60.8144 80.2693 60.4944 80.536C60.185 80.8027 59.993 81.1813 59.9184 81.672H63.3424ZM67.0418 82.52C67.0418 81.6027 67.2124 80.7973 67.5538 80.104C67.9058 79.4107 68.3804 78.8773 68.9778 78.504C69.5751 78.1307 70.2418 77.944 70.9778 77.944C71.6071 77.944 72.1564 78.072 72.6258 78.328C73.1058 78.584 73.4738 78.92 73.7298 79.336V78.072H76.4658V87H73.7298V85.736C73.4631 86.152 73.0898 86.488 72.6098 86.744C72.1404 87 71.5911 87.128 70.9618 87.128C70.2364 87.128 69.5751 86.9413 68.9778 86.568C68.3804 86.184 67.9058 85.6453 67.5538 84.952C67.2124 84.248 67.0418 83.4373 67.0418 82.52ZM73.7298 82.536C73.7298 81.8533 73.5378 81.3147 73.1538 80.92C72.7804 80.5253 72.3218 80.328 71.7778 80.328C71.2338 80.328 70.7698 80.5253 70.3858 80.92C70.0124 81.304 69.8258 81.8373 69.8258 82.52C69.8258 83.2027 70.0124 83.7467 70.3858 84.152C70.7698 84.5467 71.2338 84.744 71.7778 84.744C72.3218 84.744 72.7804 84.5467 73.1538 84.152C73.5378 83.7573 73.7298 83.2187 73.7298 82.536ZM83.9011 87L81.1811 83.256V87H78.4451V75.16H81.1811V81.704L83.8851 78.072H87.2611L83.5491 82.552L87.2931 87H83.9011ZM95.6478 75.768V77.96H91.0718V80.328H94.4958V82.456H91.0718V87H88.3358V75.768H95.6478ZM99.8218 79.56C100.142 79.0693 100.542 78.6853 101.022 78.408C101.502 78.12 102.035 77.976 102.622 77.976V80.872H101.87C101.187 80.872 100.675 81.0213 100.334 81.32C99.9924 81.608 99.8218 82.12 99.8218 82.856V87H97.0858V78.072H99.8218V79.56ZM112.345 82.392C112.345 82.648 112.33 82.9147 112.298 83.192H106.106C106.148 83.7467 106.324 84.1733 106.634 84.472C106.954 84.76 107.343 84.904 107.802 84.904C108.484 84.904 108.959 84.616 109.226 84.04H112.138C111.988 84.6267 111.716 85.1547 111.322 85.624C110.938 86.0933 110.452 86.4613 109.866 86.728C109.279 86.9947 108.623 87.128 107.898 87.128C107.023 87.128 106.244 86.9413 105.562 86.568C104.879 86.1947 104.346 85.6613 103.962 84.968C103.578 84.2747 103.386 83.464 103.386 82.536C103.386 81.608 103.572 80.7973 103.946 80.104C104.33 79.4107 104.863 78.8773 105.546 78.504C106.228 78.1307 107.012 77.944 107.898 77.944C108.762 77.944 109.53 78.1253 110.202 78.488C110.874 78.8507 111.396 79.368 111.77 80.04C112.154 80.712 112.345 81.496 112.345 82.392ZM109.546 81.672C109.546 81.2027 109.386 80.8293 109.066 80.552C108.746 80.2747 108.346 80.136 107.866 80.136C107.407 80.136 107.018 80.2693 106.698 80.536C106.388 80.8027 106.196 81.1813 106.122 81.672H109.546ZM122.205 82.392C122.205 82.648 122.189 82.9147 122.157 83.192H115.965C116.008 83.7467 116.184 84.1733 116.493 84.472C116.813 84.76 117.202 84.904 117.661 84.904C118.344 84.904 118.818 84.616 119.085 84.04H121.997C121.848 84.6267 121.576 85.1547 121.181 85.624C120.797 86.0933 120.312 86.4613 119.725 86.728C119.138 86.9947 118.482 87.128 117.757 87.128C116.882 87.128 116.104 86.9413 115.421 86.568C114.738 86.1947 114.205 85.6613 113.821 84.968C113.437 84.2747 113.245 83.464 113.245 82.536C113.245 81.608 113.432 80.7973 113.805 80.104C114.189 79.4107 114.722 78.8773 115.405 78.504C116.088 78.1307 116.872 77.944 117.757 77.944C118.621 77.944 119.389 78.1253 120.061 78.488C120.733 78.8507 121.256 79.368 121.629 80.04C122.013 80.712 122.205 81.496 122.205 82.392ZM119.405 81.672C119.405 81.2027 119.245 80.8293 118.925 80.552C118.605 80.2747 118.205 80.136 117.725 80.136C117.266 80.136 116.877 80.2693 116.557 80.536C116.248 80.8027 116.056 81.1813 115.981 81.672H119.405ZM55.0109 103.432H53.1709V111H51.7149V103.432H50.5789V102.232H51.7149V101.608C51.7149 100.627 51.9656 99.912 52.4669 99.464C52.9789 99.0053 53.7949 98.776 54.9149 98.776V99.992C54.2749 99.992 53.8216 100.12 53.5549 100.376C53.2989 100.621 53.1709 101.032 53.1709 101.608V102.232H55.0109V103.432ZM60.5326 111.144C59.7112 111.144 58.9646 110.957 58.2926 110.584C57.6312 110.211 57.1086 109.683 56.7246 109C56.3512 108.307 56.1646 107.507 56.1646 106.6C56.1646 105.704 56.3566 104.915 56.7406 104.232C57.1352 103.539 57.6686 103.011 58.3406 102.648C59.0126 102.275 59.7646 102.088 60.5966 102.088C61.4286 102.088 62.1806 102.275 62.8526 102.648C63.5246 103.011 64.0526 103.533 64.4366 104.216C64.8312 104.899 65.0286 105.693 65.0286 106.6C65.0286 107.507 64.8259 108.307 64.4206 109C64.0259 109.683 63.4872 110.211 62.8046 110.584C62.1219 110.957 61.3646 111.144 60.5326 111.144ZM60.5326 109.864C61.0552 109.864 61.5459 109.741 62.0046 109.496C62.4632 109.251 62.8312 108.883 63.1086 108.392C63.3966 107.901 63.5406 107.304 63.5406 106.6C63.5406 105.896 63.4019 105.299 63.1246 104.808C62.8472 104.317 62.4846 103.955 62.0366 103.72C61.5886 103.475 61.1032 103.352 60.5806 103.352C60.0472 103.352 59.5566 103.475 59.1086 103.72C58.6712 103.955 58.3192 104.317 58.0526 104.808C57.7859 105.299 57.6526 105.896 57.6526 106.6C57.6526 107.315 57.7806 107.917 58.0366 108.408C58.3032 108.899 58.6552 109.267 59.0926 109.512C59.5299 109.747 60.0099 109.864 60.5326 109.864ZM68.3989 103.656C68.6549 103.155 69.0176 102.765 69.4869 102.488C69.9669 102.211 70.5483 102.072 71.2309 102.072V103.576H70.8469C69.2149 103.576 68.3989 104.461 68.3989 106.232V111H66.9429V102.232H68.3989V103.656ZM80.7453 103.432H78.9053V111H77.4493V103.432H76.3133V102.232H77.4493V101.608C77.4493 100.627 77.7 99.912 78.2013 99.464C78.7133 99.0053 79.5293 98.776 80.6493 98.776V99.992C80.0093 99.992 79.556 100.12 79.2893 100.376C79.0333 100.621 78.9053 101.032 78.9053 101.608V102.232H80.7453V103.432ZM83.8989 103.656C84.1549 103.155 84.5176 102.765 84.9869 102.488C85.4669 102.211 86.0483 102.072 86.7309 102.072V103.576H86.3469C84.7149 103.576 83.8989 104.461 83.8989 106.232V111H82.4429V102.232H83.8989V103.656ZM96.4117 106.28C96.4117 106.557 96.3957 106.851 96.3637 107.16H89.3557C89.409 108.024 89.7024 108.701 90.2357 109.192C90.7797 109.672 91.4357 109.912 92.2037 109.912C92.833 109.912 93.3557 109.768 93.7717 109.48C94.1984 109.181 94.497 108.787 94.6677 108.296H96.2357C96.001 109.139 95.5317 109.827 94.8277 110.36C94.1237 110.883 93.249 111.144 92.2037 111.144C91.3717 111.144 90.625 110.957 89.9637 110.584C89.313 110.211 88.801 109.683 88.4277 109C88.0544 108.307 87.8677 107.507 87.8677 106.6C87.8677 105.693 88.049 104.899 88.4117 104.216C88.7744 103.533 89.281 103.011 89.9317 102.648C90.593 102.275 91.3504 102.088 92.2037 102.088C93.0357 102.088 93.7717 102.269 94.4117 102.632C95.0517 102.995 95.5424 103.496 95.8837 104.136C96.2357 104.765 96.4117 105.48 96.4117 106.28ZM94.9077 105.976C94.9077 105.421 94.785 104.947 94.5397 104.552C94.2944 104.147 93.9584 103.843 93.5317 103.64C93.1157 103.427 92.6517 103.32 92.1397 103.32C91.4037 103.32 90.7744 103.555 90.2517 104.024C89.7397 104.493 89.4464 105.144 89.3717 105.976H94.9077ZM106.334 106.28C106.334 106.557 106.318 106.851 106.286 107.16H99.2776C99.3309 108.024 99.6242 108.701 100.158 109.192C100.702 109.672 101.358 109.912 102.126 109.912C102.755 109.912 103.278 109.768 103.694 109.48C104.12 109.181 104.419 108.787 104.59 108.296H106.158C105.923 109.139 105.454 109.827 104.75 110.36C104.046 110.883 103.171 111.144 102.126 111.144C101.294 111.144 100.547 110.957 99.8856 110.584C99.2349 110.211 98.7229 109.683 98.3496 109C97.9762 108.307 97.7896 107.507 97.7896 106.6C97.7896 105.693 97.9709 104.899 98.3336 104.216C98.6962 103.533 99.2029 103.011 99.8536 102.648C100.515 102.275 101.272 102.088 102.126 102.088C102.958 102.088 103.694 102.269 104.334 102.632C104.974 102.995 105.464 103.496 105.806 104.136C106.158 104.765 106.334 105.48 106.334 106.28ZM104.83 105.976C104.83 105.421 104.707 104.947 104.462 104.552C104.216 104.147 103.88 103.843 103.454 103.64C103.038 103.427 102.574 103.32 102.062 103.32C101.326 103.32 100.696 103.555 100.174 104.024C99.6616 104.493 99.3682 105.144 99.2936 105.976H104.83ZM110.143 99.848L109.967 107.848H108.751L108.575 99.848H110.143ZM109.423 111.096C109.146 111.096 108.911 111 108.719 110.808C108.527 110.616 108.431 110.381 108.431 110.104C108.431 109.827 108.527 109.592 108.719 109.4C108.911 109.208 109.146 109.112 109.423 109.112C109.69 109.112 109.914 109.208 110.095 109.4C110.287 109.592 110.383 109.827 110.383 110.104C110.383 110.381 110.287 110.616 110.095 110.808C109.914 111 109.69 111.096 109.423 111.096Z" fill="black"/>
    <path d="M31.7446 268.112C31.0086 268.112 30.3472 267.984 29.7606 267.728C29.1846 267.461 28.7312 267.099 28.4006 266.64C28.0699 266.171 27.8992 265.632 27.8886 265.024H29.4406C29.4939 265.547 29.7072 265.989 30.0806 266.352C30.4646 266.704 31.0192 266.88 31.7446 266.88C32.4379 266.88 32.9819 266.709 33.3766 266.368C33.7819 266.016 33.9846 265.568 33.9846 265.024C33.9846 264.597 33.8672 264.251 33.6326 263.984C33.3979 263.717 33.1046 263.515 32.7526 263.376C32.4006 263.237 31.9259 263.088 31.3286 262.928C30.5926 262.736 30.0006 262.544 29.5526 262.352C29.1152 262.16 28.7366 261.861 28.4166 261.456C28.1072 261.04 27.9526 260.485 27.9526 259.792C27.9526 259.184 28.1072 258.645 28.4166 258.176C28.7259 257.707 29.1579 257.344 29.7126 257.088C30.2779 256.832 30.9232 256.704 31.6486 256.704C32.6939 256.704 33.5472 256.965 34.2086 257.488C34.8806 258.011 35.2592 258.704 35.3446 259.568H33.7446C33.6912 259.141 33.4672 258.768 33.0726 258.448C32.6779 258.117 32.1552 257.952 31.5046 257.952C30.8966 257.952 30.4006 258.112 30.0166 258.432C29.6326 258.741 29.4406 259.179 29.4406 259.744C29.4406 260.149 29.5526 260.48 29.7766 260.736C30.0112 260.992 30.2939 261.189 30.6246 261.328C30.9659 261.456 31.4406 261.605 32.0486 261.776C32.7846 261.979 33.3766 262.181 33.8246 262.384C34.2726 262.576 34.6566 262.88 34.9766 263.296C35.2966 263.701 35.4566 264.256 35.4566 264.96C35.4566 265.504 35.3126 266.016 35.0246 266.496C34.7366 266.976 34.3099 267.365 33.7446 267.664C33.1792 267.963 32.5126 268.112 31.7446 268.112ZM45.5992 263.28C45.5992 263.557 45.5832 263.851 45.5512 264.16H38.5432C38.5965 265.024 38.8899 265.701 39.4232 266.192C39.9672 266.672 40.6232 266.912 41.3912 266.912C42.0205 266.912 42.5432 266.768 42.9592 266.48C43.3859 266.181 43.6845 265.787 43.8552 265.296H45.4232C45.1885 266.139 44.7192 266.827 44.0152 267.36C43.3112 267.883 42.4365 268.144 41.3912 268.144C40.5592 268.144 39.8125 267.957 39.1512 267.584C38.5005 267.211 37.9885 266.683 37.6152 266C37.2419 265.307 37.0552 264.507 37.0552 263.6C37.0552 262.693 37.2365 261.899 37.5992 261.216C37.9619 260.533 38.4685 260.011 39.1192 259.648C39.7805 259.275 40.5379 259.088 41.3912 259.088C42.2232 259.088 42.9592 259.269 43.5992 259.632C44.2392 259.995 44.7299 260.496 45.0712 261.136C45.4232 261.765 45.5992 262.48 45.5992 263.28ZM44.0952 262.976C44.0952 262.421 43.9725 261.947 43.7272 261.552C43.4819 261.147 43.1459 260.843 42.7192 260.64C42.3032 260.427 41.8392 260.32 41.3272 260.32C40.5912 260.32 39.9619 260.555 39.4392 261.024C38.9272 261.493 38.6339 262.144 38.5592 262.976H44.0952ZM49.2971 260.432V265.6C49.2971 266.027 49.3877 266.331 49.5691 266.512C49.7504 266.683 50.0651 266.768 50.5131 266.768H51.5851V268H50.2731C49.4624 268 48.8544 267.813 48.4491 267.44C48.0437 267.067 47.8411 266.453 47.8411 265.6V260.432H46.7051V259.232H47.8411V257.024H49.2971V259.232H51.5851V260.432H49.2971ZM62.3508 265.68V268H60.9588C59.9668 268 59.1935 267.76 58.6388 267.28C58.0841 266.789 57.8068 265.995 57.8068 264.896V261.344H56.7188V259.072H57.8068V256.896H60.5428V259.072H62.3348V261.344H60.5428V264.928C60.5428 265.195 60.6068 265.387 60.7348 265.504C60.8628 265.621 61.0761 265.68 61.3748 265.68H62.3508ZM65.2508 258.144C64.7708 258.144 64.3761 258.005 64.0668 257.728C63.7681 257.44 63.6188 257.088 63.6188 256.672C63.6188 256.245 63.7681 255.893 64.0668 255.616C64.3761 255.328 64.7708 255.184 65.2508 255.184C65.7201 255.184 66.1041 255.328 66.4028 255.616C66.7121 255.893 66.8668 256.245 66.8668 256.672C66.8668 257.088 66.7121 257.44 66.4028 257.728C66.1041 258.005 65.7201 258.144 65.2508 258.144ZM66.6108 259.072V268H63.8748V259.072H66.6108ZM79.9856 258.976C81.0949 258.976 81.9749 259.312 82.6256 259.984C83.2869 260.656 83.6176 261.589 83.6176 262.784V268H80.8976V263.152C80.8976 262.576 80.7429 262.133 80.4336 261.824C80.1349 261.504 79.7189 261.344 79.1856 261.344C78.6522 261.344 78.2309 261.504 77.9216 261.824C77.6229 262.133 77.4736 262.576 77.4736 263.152V268H74.7536V263.152C74.7536 262.576 74.5989 262.133 74.2896 261.824C73.9909 261.504 73.5749 261.344 73.0416 261.344C72.5082 261.344 72.0869 261.504 71.7776 261.824C71.4789 262.133 71.3296 262.576 71.3296 263.152V268H68.5936V259.072H71.3296V260.192C71.6069 259.819 71.9696 259.525 72.4176 259.312C72.8656 259.088 73.3722 258.976 73.9376 258.976C74.6096 258.976 75.2069 259.12 75.7296 259.408C76.2629 259.696 76.6789 260.107 76.9776 260.64C77.2869 260.149 77.7082 259.749 78.2416 259.44C78.7749 259.131 79.3562 258.976 79.9856 258.976ZM93.9471 263.392C93.9471 263.648 93.9311 263.915 93.8991 264.192H87.7071C87.7497 264.747 87.9257 265.173 88.2351 265.472C88.5551 265.76 88.9444 265.904 89.4031 265.904C90.0857 265.904 90.5604 265.616 90.8271 265.04H93.7391C93.5897 265.627 93.3177 266.155 92.9231 266.624C92.5391 267.093 92.0537 267.461 91.4671 267.728C90.8804 267.995 90.2244 268.128 89.4991 268.128C88.6244 268.128 87.8457 267.941 87.1631 267.568C86.4804 267.195 85.9471 266.661 85.5631 265.968C85.1791 265.275 84.9871 264.464 84.9871 263.536C84.9871 262.608 85.1737 261.797 85.5471 261.104C85.9311 260.411 86.4644 259.877 87.1471 259.504C87.8297 259.131 88.6137 258.944 89.4991 258.944C90.3631 258.944 91.1311 259.125 91.8031 259.488C92.4751 259.851 92.9977 260.368 93.3711 261.04C93.7551 261.712 93.9471 262.496 93.9471 263.392ZM91.1471 262.672C91.1471 262.203 90.9871 261.829 90.6671 261.552C90.3471 261.275 89.9471 261.136 89.4671 261.136C89.0084 261.136 88.6191 261.269 88.2991 261.536C87.9897 261.803 87.7977 262.181 87.7231 262.672H91.1471ZM98.1264 260.56C98.4464 260.069 98.8464 259.685 99.3264 259.408C99.8064 259.12 100.34 258.976 100.926 258.976V261.872H100.174C99.4918 261.872 98.9798 262.021 98.6384 262.32C98.2971 262.608 98.1264 263.12 98.1264 263.856V268H95.3904V259.072H98.1264V260.56ZM105.866 268.128C105.088 268.128 104.394 267.995 103.786 267.728C103.178 267.461 102.698 267.099 102.346 266.64C101.994 266.171 101.797 265.648 101.754 265.072H104.458C104.49 265.381 104.634 265.632 104.89 265.824C105.146 266.016 105.461 266.112 105.834 266.112C106.176 266.112 106.437 266.048 106.618 265.92C106.81 265.781 106.906 265.605 106.906 265.392C106.906 265.136 106.773 264.949 106.506 264.832C106.24 264.704 105.808 264.565 105.21 264.416C104.57 264.267 104.037 264.112 103.61 263.952C103.184 263.781 102.816 263.52 102.506 263.168C102.197 262.805 102.042 262.32 102.042 261.712C102.042 261.2 102.181 260.736 102.458 260.32C102.746 259.893 103.162 259.557 103.706 259.312C104.261 259.067 104.917 258.944 105.674 258.944C106.794 258.944 107.674 259.221 108.314 259.776C108.965 260.331 109.338 261.067 109.434 261.984H106.906C106.864 261.675 106.725 261.429 106.49 261.248C106.266 261.067 105.968 260.976 105.594 260.976C105.274 260.976 105.029 261.04 104.858 261.168C104.688 261.285 104.602 261.451 104.602 261.664C104.602 261.92 104.736 262.112 105.002 262.24C105.28 262.368 105.706 262.496 106.282 262.624C106.944 262.795 107.482 262.965 107.898 263.136C108.314 263.296 108.677 263.563 108.986 263.936C109.306 264.299 109.472 264.789 109.482 265.408C109.482 265.931 109.333 266.4 109.034 266.816C108.746 267.221 108.325 267.541 107.77 267.776C107.226 268.011 106.592 268.128 105.866 268.128ZM118.355 260.432H116.515V268H115.059V260.432H113.923V259.232H115.059V258.608C115.059 257.627 115.309 256.912 115.811 256.464C116.323 256.005 117.139 255.776 118.259 255.776V256.992C117.619 256.992 117.165 257.12 116.899 257.376C116.643 257.621 116.515 258.032 116.515 258.608V259.232H118.355V260.432ZM123.876 268.144C123.055 268.144 122.308 267.957 121.636 267.584C120.975 267.211 120.452 266.683 120.068 266C119.695 265.307 119.508 264.507 119.508 263.6C119.508 262.704 119.7 261.915 120.084 261.232C120.479 260.539 121.012 260.011 121.684 259.648C122.356 259.275 123.108 259.088 123.94 259.088C124.772 259.088 125.524 259.275 126.196 259.648C126.868 260.011 127.396 260.533 127.78 261.216C128.175 261.899 128.372 262.693 128.372 263.6C128.372 264.507 128.17 265.307 127.764 266C127.37 266.683 126.831 267.211 126.148 267.584C125.466 267.957 124.708 268.144 123.876 268.144ZM123.876 266.864C124.399 266.864 124.89 266.741 125.348 266.496C125.807 266.251 126.175 265.883 126.452 265.392C126.74 264.901 126.884 264.304 126.884 263.6C126.884 262.896 126.746 262.299 126.468 261.808C126.191 261.317 125.828 260.955 125.38 260.72C124.932 260.475 124.447 260.352 123.924 260.352C123.391 260.352 122.9 260.475 122.452 260.72C122.015 260.955 121.663 261.317 121.396 261.808C121.13 262.299 120.996 262.896 120.996 263.6C120.996 264.315 121.124 264.917 121.38 265.408C121.647 265.899 121.999 266.267 122.436 266.512C122.874 266.747 123.354 266.864 123.876 266.864ZM131.743 260.656C131.999 260.155 132.361 259.765 132.831 259.488C133.311 259.211 133.892 259.072 134.575 259.072V260.576H134.191C132.559 260.576 131.743 261.461 131.743 263.232V268H130.287V259.232H131.743V260.656ZM16.6958 287.584C16.6958 286.688 16.8771 285.904 17.2398 285.232C17.6025 284.549 18.0985 284.021 18.7278 283.648C19.3678 283.275 20.0771 283.088 20.8558 283.088C21.6238 283.088 22.2905 283.253 22.8558 283.584C23.4211 283.915 23.8425 284.331 24.1198 284.832V283.232H25.5918V292H24.1198V290.368C23.8318 290.88 23.3998 291.307 22.8238 291.648C22.2585 291.979 21.5971 292.144 20.8398 292.144C20.0611 292.144 19.3571 291.952 18.7278 291.568C18.0985 291.184 17.6025 290.645 17.2398 289.952C16.8771 289.259 16.6958 288.469 16.6958 287.584ZM24.1198 287.6C24.1198 286.939 23.9865 286.363 23.7198 285.872C23.4531 285.381 23.0905 285.008 22.6318 284.752C22.1838 284.485 21.6878 284.352 21.1438 284.352C20.5998 284.352 20.1038 284.48 19.6558 284.736C19.2078 284.992 18.8505 285.365 18.5838 285.856C18.3171 286.347 18.1838 286.923 18.1838 287.584C18.1838 288.256 18.3171 288.843 18.5838 289.344C18.8505 289.835 19.2078 290.213 19.6558 290.48C20.1038 290.736 20.5998 290.864 21.1438 290.864C21.6878 290.864 22.1838 290.736 22.6318 290.48C23.0905 290.213 23.4531 289.835 23.7198 289.344C23.9865 288.843 24.1198 288.261 24.1198 287.6ZM32.3243 283.072C33.391 283.072 34.255 283.397 34.9163 284.048C35.5776 284.688 35.9083 285.616 35.9083 286.832V292H34.4683V287.04C34.4683 286.165 34.2496 285.499 33.8123 285.04C33.375 284.571 32.7776 284.336 32.0203 284.336C31.2523 284.336 30.639 284.576 30.1803 285.056C29.7323 285.536 29.5083 286.235 29.5083 287.152V292H28.0523V283.232H29.5083V284.48C29.7963 284.032 30.1856 283.685 30.6763 283.44C31.1776 283.195 31.727 283.072 32.3243 283.072ZM45.8387 283.232L40.5587 296.128H39.0547L40.7827 291.904L37.2467 283.232H38.8627L41.6147 290.336L44.3347 283.232H45.8387ZM63.2479 283.232L60.5119 292H59.0079L56.8959 285.04L54.7839 292H53.2799L50.5279 283.232H52.0159L54.0319 290.592L56.2079 283.232H57.6959L59.8239 290.608L61.8079 283.232H63.2479ZM72.6929 287.28C72.6929 287.557 72.6769 287.851 72.6449 288.16H65.6369C65.6903 289.024 65.9836 289.701 66.5169 290.192C67.0609 290.672 67.7169 290.912 68.4849 290.912C69.1143 290.912 69.6369 290.768 70.0529 290.48C70.4796 290.181 70.7783 289.787 70.9489 289.296H72.5169C72.2823 290.139 71.8129 290.827 71.1089 291.36C70.4049 291.883 69.5303 292.144 68.4849 292.144C67.6529 292.144 66.9063 291.957 66.2449 291.584C65.5943 291.211 65.0823 290.683 64.7089 290C64.3356 289.307 64.1489 288.507 64.1489 287.6C64.1489 286.693 64.3303 285.899 64.6929 285.216C65.0556 284.533 65.5623 284.011 66.2129 283.648C66.8743 283.275 67.6316 283.088 68.4849 283.088C69.3169 283.088 70.0529 283.269 70.6929 283.632C71.3329 283.995 71.8236 284.496 72.1649 285.136C72.5169 285.765 72.6929 286.48 72.6929 287.28ZM71.1889 286.976C71.1889 286.421 71.0663 285.947 70.8209 285.552C70.5756 285.147 70.2396 284.843 69.8129 284.64C69.3969 284.427 68.9329 284.32 68.4209 284.32C67.6849 284.32 67.0556 284.555 66.5329 285.024C66.0209 285.493 65.7276 286.144 65.6529 286.976H71.1889ZM76.0708 284.864C76.3695 284.341 76.8068 283.915 77.3828 283.584C77.9588 283.253 78.6148 283.088 79.3508 283.088C80.1401 283.088 80.8495 283.275 81.4788 283.648C82.1081 284.021 82.6041 284.549 82.9668 285.232C83.3295 285.904 83.5108 286.688 83.5108 287.584C83.5108 288.469 83.3295 289.259 82.9668 289.952C82.6041 290.645 82.1028 291.184 81.4628 291.568C80.8335 291.952 80.1295 292.144 79.3508 292.144C78.5935 292.144 77.9268 291.979 77.3508 291.648C76.7855 291.317 76.3588 290.896 76.0708 290.384V292H74.6148V280.16H76.0708V284.864ZM82.0228 287.584C82.0228 286.923 81.8895 286.347 81.6228 285.856C81.3561 285.365 80.9935 284.992 80.5348 284.736C80.0868 284.48 79.5908 284.352 79.0468 284.352C78.5135 284.352 78.0175 284.485 77.5588 284.752C77.1108 285.008 76.7481 285.387 76.4708 285.888C76.2041 286.379 76.0708 286.949 76.0708 287.6C76.0708 288.261 76.2041 288.843 76.4708 289.344C76.7481 289.835 77.1108 290.213 77.5588 290.48C78.0175 290.736 78.5135 290.864 79.0468 290.864C79.5908 290.864 80.0868 290.736 80.5348 290.48C80.9935 290.213 81.3561 289.835 81.6228 289.344C81.8895 288.843 82.0228 288.256 82.0228 287.584ZM88.5313 292.144C87.8593 292.144 87.2566 292.032 86.7233 291.808C86.19 291.573 85.7686 291.253 85.4593 290.848C85.15 290.432 84.9793 289.957 84.9473 289.424H86.4513C86.494 289.861 86.6966 290.219 87.0593 290.496C87.4326 290.773 87.918 290.912 88.5153 290.912C89.07 290.912 89.5073 290.789 89.8273 290.544C90.1473 290.299 90.3073 289.989 90.3073 289.616C90.3073 289.232 90.1366 288.949 89.7953 288.768C89.454 288.576 88.926 288.389 88.2113 288.208C87.5606 288.037 87.0273 287.867 86.6113 287.696C86.206 287.515 85.854 287.253 85.5553 286.912C85.2673 286.56 85.1233 286.101 85.1233 285.536C85.1233 285.088 85.2566 284.677 85.5233 284.304C85.79 283.931 86.1686 283.637 86.6593 283.424C87.15 283.2 87.71 283.088 88.3393 283.088C89.31 283.088 90.094 283.333 90.6913 283.824C91.2886 284.315 91.6086 284.987 91.6513 285.84H90.1953C90.1633 285.381 89.9766 285.013 89.6353 284.736C89.3046 284.459 88.8566 284.32 88.2913 284.32C87.7686 284.32 87.3526 284.432 87.0433 284.656C86.734 284.88 86.5793 285.173 86.5793 285.536C86.5793 285.824 86.67 286.064 86.8513 286.256C87.0433 286.437 87.278 286.587 87.5553 286.704C87.8433 286.811 88.238 286.933 88.7393 287.072C89.3686 287.243 89.8806 287.413 90.2753 287.584C90.67 287.744 91.006 287.989 91.2833 288.32C91.5713 288.651 91.7206 289.083 91.7313 289.616C91.7313 290.096 91.598 290.528 91.3313 290.912C91.0646 291.296 90.686 291.6 90.1953 291.824C89.7153 292.037 89.1606 292.144 88.5313 292.144ZM94.5387 281.808C94.2614 281.808 94.0267 281.712 93.8347 281.52C93.6427 281.328 93.5467 281.093 93.5467 280.816C93.5467 280.539 93.6427 280.304 93.8347 280.112C94.0267 279.92 94.2614 279.824 94.5387 279.824C94.8054 279.824 95.0294 279.92 95.2107 280.112C95.4027 280.304 95.4987 280.539 95.4987 280.816C95.4987 281.093 95.4027 281.328 95.2107 281.52C95.0294 281.712 94.8054 281.808 94.5387 281.808ZM95.2427 283.232V292H93.7867V283.232H95.2427ZM99.5002 284.432V289.6C99.5002 290.027 99.5909 290.331 99.7722 290.512C99.9535 290.683 100.268 290.768 100.716 290.768H101.788V292H100.476C99.6655 292 99.0575 291.813 98.6522 291.44C98.2469 291.067 98.0442 290.453 98.0442 289.6V284.432H96.9082V283.232H98.0442V281.024H99.5002V283.232H101.788V284.432H99.5002ZM111.552 287.28C111.552 287.557 111.536 287.851 111.504 288.16H104.496C104.55 289.024 104.843 289.701 105.376 290.192C105.92 290.672 106.576 290.912 107.344 290.912C107.974 290.912 108.496 290.768 108.912 290.48C109.339 290.181 109.638 289.787 109.808 289.296H111.376C111.142 290.139 110.672 290.827 109.968 291.36C109.264 291.883 108.39 292.144 107.344 292.144C106.512 292.144 105.766 291.957 105.104 291.584C104.454 291.211 103.942 290.683 103.568 290C103.195 289.307 103.008 288.507 103.008 287.6C103.008 286.693 103.19 285.899 103.552 285.216C103.915 284.533 104.422 284.011 105.072 283.648C105.734 283.275 106.491 283.088 107.344 283.088C108.176 283.088 108.912 283.269 109.552 283.632C110.192 283.995 110.683 284.496 111.024 285.136C111.376 285.765 111.552 286.48 111.552 287.28ZM110.048 286.976C110.048 286.421 109.926 285.947 109.68 285.552C109.435 285.147 109.099 284.843 108.672 284.64C108.256 284.427 107.792 284.32 107.28 284.32C106.544 284.32 105.915 284.555 105.392 285.024C104.88 285.493 104.587 286.144 104.512 286.976H110.048ZM125.292 283.232L120.012 296.128H118.508L120.236 291.904L116.7 283.232H118.316L121.068 290.336L123.788 283.232H125.292ZM130.579 292.144C129.758 292.144 129.011 291.957 128.339 291.584C127.678 291.211 127.155 290.683 126.771 290C126.398 289.307 126.211 288.507 126.211 287.6C126.211 286.704 126.403 285.915 126.787 285.232C127.182 284.539 127.715 284.011 128.387 283.648C129.059 283.275 129.811 283.088 130.643 283.088C131.475 283.088 132.227 283.275 132.899 283.648C133.571 284.011 134.099 284.533 134.483 285.216C134.878 285.899 135.075 286.693 135.075 287.6C135.075 288.507 134.873 289.307 134.467 290C134.073 290.683 133.534 291.211 132.851 291.584C132.169 291.957 131.411 292.144 130.579 292.144ZM130.579 290.864C131.102 290.864 131.593 290.741 132.051 290.496C132.51 290.251 132.878 289.883 133.155 289.392C133.443 288.901 133.587 288.304 133.587 287.6C133.587 286.896 133.449 286.299 133.171 285.808C132.894 285.317 132.531 284.955 132.083 284.72C131.635 284.475 131.15 284.352 130.627 284.352C130.094 284.352 129.603 284.475 129.155 284.72C128.718 284.955 128.366 285.317 128.099 285.808C127.833 286.299 127.699 286.896 127.699 287.6C127.699 288.315 127.827 288.917 128.083 289.408C128.35 289.899 128.702 290.267 129.139 290.512C129.577 290.747 130.057 290.864 130.579 290.864ZM144.766 283.232V292H143.31V290.704C143.032 291.152 142.643 291.504 142.142 291.76C141.651 292.005 141.107 292.128 140.51 292.128C139.827 292.128 139.214 291.989 138.67 291.712C138.126 291.424 137.694 290.997 137.374 290.432C137.064 289.867 136.91 289.179 136.91 288.368V283.232H138.35V288.176C138.35 289.04 138.568 289.707 139.006 290.176C139.443 290.635 140.04 290.864 140.798 290.864C141.576 290.864 142.19 290.624 142.638 290.144C143.086 289.664 143.31 288.965 143.31 288.048V283.232H144.766ZM69.3964 307.232L66.6604 316H65.1564L63.0444 309.04L60.9324 316H59.4284L56.6764 307.232H58.1644L60.1804 314.592L62.3564 307.232H63.8444L65.9724 314.608L67.9564 307.232H69.3964ZM70.2974 311.584C70.2974 310.688 70.4787 309.904 70.8414 309.232C71.204 308.549 71.7 308.021 72.3294 307.648C72.9694 307.275 73.6787 307.088 74.4574 307.088C75.2254 307.088 75.892 307.253 76.4574 307.584C77.0227 307.915 77.444 308.331 77.7214 308.832V307.232H79.1934V316H77.7214V314.368C77.4334 314.88 77.0014 315.307 76.4254 315.648C75.86 315.979 75.1987 316.144 74.4414 316.144C73.6627 316.144 72.9587 315.952 72.3294 315.568C71.7 315.184 71.204 314.645 70.8414 313.952C70.4787 313.259 70.2974 312.469 70.2974 311.584ZM77.7214 311.6C77.7214 310.939 77.588 310.363 77.3214 309.872C77.0547 309.381 76.692 309.008 76.2334 308.752C75.7854 308.485 75.2894 308.352 74.7454 308.352C74.2014 308.352 73.7054 308.48 73.2574 308.736C72.8094 308.992 72.452 309.365 72.1854 309.856C71.9187 310.347 71.7854 310.923 71.7854 311.584C71.7854 312.256 71.9187 312.843 72.1854 313.344C72.452 313.835 72.8094 314.213 73.2574 314.48C73.7054 314.736 74.2014 314.864 74.7454 314.864C75.2894 314.864 75.7854 314.736 76.2334 314.48C76.692 314.213 77.0547 313.835 77.3214 313.344C77.588 312.843 77.7214 312.261 77.7214 311.6ZM85.9259 307.072C86.9925 307.072 87.8565 307.397 88.5179 308.048C89.1792 308.688 89.5099 309.616 89.5099 310.832V316H88.0699V311.04C88.0699 310.165 87.8512 309.499 87.4139 309.04C86.9765 308.571 86.3792 308.336 85.6219 308.336C84.8539 308.336 84.2405 308.576 83.7819 309.056C83.3339 309.536 83.1099 310.235 83.1099 311.152V316H81.6539V307.232H83.1099V308.48C83.3979 308.032 83.7872 307.685 84.2779 307.44C84.7792 307.195 85.3285 307.072 85.9259 307.072ZM93.6643 308.432V313.6C93.6643 314.027 93.7549 314.331 93.9363 314.512C94.1176 314.683 94.4323 314.768 94.8802 314.768H95.9523V316H94.6403C93.8296 316 93.2216 315.813 92.8163 315.44C92.4109 315.067 92.2083 314.453 92.2083 313.6V308.432H91.0723V307.232H92.2083V305.024H93.6643V307.232H95.9523V308.432H93.6643ZM99.6044 304.848L99.4284 312.848H98.2124L98.0364 304.848H99.6044ZM98.8844 316.096C98.607 316.096 98.3724 316 98.1804 315.808C97.9884 315.616 97.8924 315.381 97.8924 315.104C97.8924 314.827 97.9884 314.592 98.1804 314.4C98.3724 314.208 98.607 314.112 98.8844 314.112C99.151 314.112 99.375 314.208 99.5564 314.4C99.7484 314.592 99.8444 314.827 99.8444 315.104C99.8444 315.381 99.7484 315.616 99.5564 315.808C99.375 316 99.151 316.096 98.8844 316.096Z" fill="black"/>
    <path d="M25.0264 467.24C25.677 467.379 26.1997 467.704 26.5944 468.216C26.989 468.717 27.1864 469.293 27.1864 469.944C27.1864 470.883 26.8557 471.629 26.1944 472.184C25.5437 472.728 24.6317 473 23.4584 473H18.2264V461.768H23.2824C24.4237 461.768 25.3144 462.029 25.9544 462.552C26.605 463.075 26.9304 463.784 26.9304 464.68C26.9304 465.341 26.7544 465.891 26.4024 466.328C26.061 466.765 25.6024 467.069 25.0264 467.24ZM20.9624 466.312H22.7544C23.2024 466.312 23.5437 466.216 23.7784 466.024C24.0237 465.821 24.1464 465.528 24.1464 465.144C24.1464 464.76 24.0237 464.467 23.7784 464.264C23.5437 464.061 23.2024 463.96 22.7544 463.96H20.9624V466.312ZM22.9784 470.792C23.437 470.792 23.789 470.691 24.0344 470.488C24.2904 470.275 24.4184 469.971 24.4184 469.576C24.4184 469.181 24.285 468.872 24.0184 468.648C23.7624 468.424 23.405 468.312 22.9464 468.312H20.9624V470.792H22.9784ZM31.5093 465.56C31.8293 465.069 32.2293 464.685 32.7093 464.408C33.1893 464.12 33.7226 463.976 34.3093 463.976V466.872H33.5573C32.8746 466.872 32.3626 467.021 32.0213 467.32C31.6799 467.608 31.5093 468.12 31.5093 468.856V473H28.7733V464.072H31.5093V465.56ZM44.033 468.392C44.033 468.648 44.017 468.915 43.985 469.192H37.793C37.8357 469.747 38.0117 470.173 38.321 470.472C38.641 470.76 39.0303 470.904 39.489 470.904C40.1717 470.904 40.6463 470.616 40.913 470.04H43.825C43.6757 470.627 43.4037 471.155 43.009 471.624C42.625 472.093 42.1397 472.461 41.553 472.728C40.9663 472.995 40.3103 473.128 39.585 473.128C38.7103 473.128 37.9317 472.941 37.249 472.568C36.5663 472.195 36.033 471.661 35.649 470.968C35.265 470.275 35.073 469.464 35.073 468.536C35.073 467.608 35.2597 466.797 35.633 466.104C36.017 465.411 36.5503 464.877 37.233 464.504C37.9157 464.131 38.6997 463.944 39.585 463.944C40.449 463.944 41.217 464.125 41.889 464.488C42.561 464.851 43.0837 465.368 43.457 466.04C43.841 466.712 44.033 467.496 44.033 468.392ZM41.233 467.672C41.233 467.203 41.073 466.829 40.753 466.552C40.433 466.275 40.033 466.136 39.553 466.136C39.0943 466.136 38.705 466.269 38.385 466.536C38.0757 466.803 37.8837 467.181 37.809 467.672H41.233ZM44.9324 468.52C44.9324 467.603 45.103 466.797 45.4444 466.104C45.7964 465.411 46.271 464.877 46.8684 464.504C47.4657 464.131 48.1324 463.944 48.8684 463.944C49.4977 463.944 50.047 464.072 50.5164 464.328C50.9964 464.584 51.3644 464.92 51.6204 465.336V464.072H54.3564V473H51.6204V471.736C51.3537 472.152 50.9804 472.488 50.5004 472.744C50.031 473 49.4817 473.128 48.8524 473.128C48.127 473.128 47.4657 472.941 46.8684 472.568C46.271 472.184 45.7964 471.645 45.4444 470.952C45.103 470.248 44.9324 469.437 44.9324 468.52ZM51.6204 468.536C51.6204 467.853 51.4284 467.315 51.0444 466.92C50.671 466.525 50.2124 466.328 49.6684 466.328C49.1244 466.328 48.6604 466.525 48.2764 466.92C47.903 467.304 47.7164 467.837 47.7164 468.52C47.7164 469.203 47.903 469.747 48.2764 470.152C48.6604 470.547 49.1244 470.744 49.6684 470.744C50.2124 470.744 50.671 470.547 51.0444 470.152C51.4284 469.757 51.6204 469.219 51.6204 468.536ZM61.7918 473L59.0718 469.256V473H56.3358V461.16H59.0718V467.704L61.7758 464.072H65.1518L61.4398 468.552L65.1838 473H61.7918ZM73.5384 461.768V463.96H68.9624V466.328H72.3864V468.456H68.9624V473H66.2264V461.768H73.5384ZM77.7124 465.56C78.0324 465.069 78.4324 464.685 78.9124 464.408C79.3924 464.12 79.9257 463.976 80.5124 463.976V466.872H79.7604C79.0777 466.872 78.5657 467.021 78.2244 467.32C77.883 467.608 77.7124 468.12 77.7124 468.856V473H74.9764V464.072H77.7124V465.56ZM90.2361 468.392C90.2361 468.648 90.2201 468.915 90.1881 469.192H83.9961C84.0388 469.747 84.2148 470.173 84.5241 470.472C84.8441 470.76 85.2335 470.904 85.6921 470.904C86.3748 470.904 86.8495 470.616 87.1161 470.04H90.0281C89.8788 470.627 89.6068 471.155 89.2121 471.624C88.8281 472.093 88.3428 472.461 87.7561 472.728C87.1695 472.995 86.5135 473.128 85.7881 473.128C84.9135 473.128 84.1348 472.941 83.4521 472.568C82.7695 472.195 82.2361 471.661 81.8521 470.968C81.4681 470.275 81.2761 469.464 81.2761 468.536C81.2761 467.608 81.4628 466.797 81.8361 466.104C82.2201 465.411 82.7535 464.877 83.4361 464.504C84.1188 464.131 84.9028 463.944 85.7881 463.944C86.6521 463.944 87.4201 464.125 88.0921 464.488C88.7641 464.851 89.2868 465.368 89.6601 466.04C90.0441 466.712 90.2361 467.496 90.2361 468.392ZM87.4361 467.672C87.4361 467.203 87.2761 466.829 86.9561 466.552C86.6361 466.275 86.2361 466.136 85.7561 466.136C85.2975 466.136 84.9081 466.269 84.5881 466.536C84.2788 466.803 84.0868 467.181 84.0121 467.672H87.4361ZM100.095 468.392C100.095 468.648 100.08 468.915 100.048 469.192H93.8555C93.8982 469.747 94.0742 470.173 94.3835 470.472C94.7035 470.76 95.0928 470.904 95.5515 470.904C96.2342 470.904 96.7088 470.616 96.9755 470.04H99.8875C99.7382 470.627 99.4662 471.155 99.0715 471.624C98.6875 472.093 98.2022 472.461 97.6155 472.728C97.0288 472.995 96.3728 473.128 95.6475 473.128C94.7728 473.128 93.9942 472.941 93.3115 472.568C92.6288 472.195 92.0955 471.661 91.7115 470.968C91.3275 470.275 91.1355 469.464 91.1355 468.536C91.1355 467.608 91.3222 466.797 91.6955 466.104C92.0795 465.411 92.6128 464.877 93.2955 464.504C93.9782 464.131 94.7622 463.944 95.6475 463.944C96.5115 463.944 97.2795 464.125 97.9515 464.488C98.6235 464.851 99.1462 465.368 99.5195 466.04C99.9035 466.712 100.095 467.496 100.095 468.392ZM97.2955 467.672C97.2955 467.203 97.1355 466.829 96.8155 466.552C96.4955 466.275 96.0955 466.136 95.6155 466.136C95.1568 466.136 94.7675 466.269 94.4475 466.536C94.1382 466.803 93.9462 467.181 93.8715 467.672H97.2955ZM109.613 465.432H107.773V473H106.317V465.432H105.181V464.232H106.317V463.608C106.317 462.627 106.567 461.912 107.069 461.464C107.581 461.005 108.397 460.776 109.516 460.776V461.992C108.877 461.992 108.423 462.12 108.157 462.376C107.901 462.621 107.773 463.032 107.773 463.608V464.232H109.613V465.432ZM112.766 465.656C113.022 465.155 113.385 464.765 113.854 464.488C114.334 464.211 114.915 464.072 115.598 464.072V465.576H115.214C113.582 465.576 112.766 466.461 112.766 468.232V473H111.31V464.232H112.766V465.656ZM121.103 473.144C120.282 473.144 119.535 472.957 118.863 472.584C118.202 472.211 117.679 471.683 117.295 471C116.922 470.307 116.735 469.507 116.735 468.6C116.735 467.704 116.927 466.915 117.311 466.232C117.706 465.539 118.239 465.011 118.911 464.648C119.583 464.275 120.335 464.088 121.167 464.088C121.999 464.088 122.751 464.275 123.423 464.648C124.095 465.011 124.623 465.533 125.007 466.216C125.402 466.899 125.599 467.693 125.599 468.6C125.599 469.507 125.396 470.307 124.991 471C124.596 471.683 124.058 472.211 123.375 472.584C122.692 472.957 121.935 473.144 121.103 473.144ZM121.103 471.864C121.626 471.864 122.116 471.741 122.575 471.496C123.034 471.251 123.402 470.883 123.679 470.392C123.967 469.901 124.111 469.304 124.111 468.6C124.111 467.896 123.972 467.299 123.695 466.808C123.418 466.317 123.055 465.955 122.607 465.72C122.159 465.475 121.674 465.352 121.151 465.352C120.618 465.352 120.127 465.475 119.679 465.72C119.242 465.955 118.89 466.317 118.623 466.808C118.356 467.299 118.223 467.896 118.223 468.6C118.223 469.315 118.351 469.917 118.607 470.408C118.874 470.899 119.226 471.267 119.663 471.512C120.1 471.747 120.58 471.864 121.103 471.864ZM138.057 464.072C138.74 464.072 139.348 464.216 139.881 464.504C140.415 464.781 140.836 465.203 141.145 465.768C141.455 466.333 141.609 467.021 141.609 467.832V473H140.169V468.04C140.169 467.165 139.951 466.499 139.513 466.04C139.087 465.571 138.505 465.336 137.769 465.336C137.012 465.336 136.409 465.581 135.961 466.072C135.513 466.552 135.289 467.251 135.289 468.168V473H133.849V468.04C133.849 467.165 133.631 466.499 133.193 466.04C132.767 465.571 132.185 465.336 131.449 465.336C130.692 465.336 130.089 465.581 129.641 466.072C129.193 466.552 128.969 467.251 128.969 468.168V473H127.513V464.232H128.969V465.496C129.257 465.037 129.641 464.685 130.121 464.44C130.612 464.195 131.151 464.072 131.737 464.072C132.473 464.072 133.124 464.237 133.689 464.568C134.255 464.899 134.676 465.384 134.953 466.024C135.199 465.405 135.604 464.925 136.169 464.584C136.735 464.243 137.364 464.072 138.057 464.072ZM23.2111 489.432V494.6C23.2111 495.027 23.3018 495.331 23.4831 495.512C23.6645 495.683 23.9791 495.768 24.4271 495.768H25.4991V497H24.1871C23.3765 497 22.7685 496.813 22.3631 496.44C21.9578 496.067 21.7551 495.453 21.7551 494.6V489.432H20.6191V488.232H21.7551V486.024H23.2111V488.232H25.4991V489.432H23.2111ZM31.6153 488.072C32.2766 488.072 32.8739 488.216 33.4073 488.504C33.9406 488.781 34.3566 489.203 34.6553 489.768C34.9646 490.333 35.1193 491.021 35.1193 491.832V497H33.6793V492.04C33.6793 491.165 33.4606 490.499 33.0233 490.04C32.5859 489.571 31.9886 489.336 31.2313 489.336C30.4633 489.336 29.8499 489.576 29.3913 490.056C28.9433 490.536 28.7193 491.235 28.7193 492.152V497H27.2633V485.16H28.7193V489.48C29.0073 489.032 29.4019 488.685 29.9033 488.44C30.4153 488.195 30.9859 488.072 31.6153 488.072ZM45.4976 492.28C45.4976 492.557 45.4816 492.851 45.4496 493.16H38.4416C38.495 494.024 38.7883 494.701 39.3216 495.192C39.8656 495.672 40.5216 495.912 41.2896 495.912C41.919 495.912 42.4416 495.768 42.8576 495.48C43.2843 495.181 43.583 494.787 43.7536 494.296H45.3216C45.087 495.139 44.6176 495.827 43.9136 496.36C43.2096 496.883 42.335 497.144 41.2896 497.144C40.4576 497.144 39.711 496.957 39.0496 496.584C38.399 496.211 37.887 495.683 37.5136 495C37.1403 494.307 36.9536 493.507 36.9536 492.6C36.9536 491.693 37.135 490.899 37.4976 490.216C37.8603 489.533 38.367 489.011 39.0176 488.648C39.679 488.275 40.4363 488.088 41.2896 488.088C42.1216 488.088 42.8576 488.269 43.4976 488.632C44.1376 488.995 44.6283 489.496 44.9696 490.136C45.3216 490.765 45.4976 491.48 45.4976 492.28ZM43.9936 491.976C43.9936 491.421 43.871 490.947 43.6256 490.552C43.3803 490.147 43.0443 489.843 42.6176 489.64C42.2016 489.427 41.7376 489.32 41.2256 489.32C40.4896 489.32 39.8603 489.555 39.3376 490.024C38.8256 490.493 38.5323 491.144 38.4576 491.976H43.9936ZM54.7891 497.144C54.1171 497.144 53.5145 497.032 52.9811 496.808C52.4478 496.573 52.0265 496.253 51.7171 495.848C51.4078 495.432 51.2371 494.957 51.2051 494.424H52.7091C52.7518 494.861 52.9545 495.219 53.3171 495.496C53.6905 495.773 54.1758 495.912 54.7731 495.912C55.3278 495.912 55.7651 495.789 56.0851 495.544C56.4051 495.299 56.5651 494.989 56.5651 494.616C56.5651 494.232 56.3945 493.949 56.0531 493.768C55.7118 493.576 55.1838 493.389 54.4691 493.208C53.8185 493.037 53.2851 492.867 52.8691 492.696C52.4638 492.515 52.1118 492.253 51.8131 491.912C51.5251 491.56 51.3811 491.101 51.3811 490.536C51.3811 490.088 51.5145 489.677 51.7811 489.304C52.0478 488.931 52.4265 488.637 52.9171 488.424C53.4078 488.2 53.9678 488.088 54.5971 488.088C55.5678 488.088 56.3518 488.333 56.9491 488.824C57.5465 489.315 57.8665 489.987 57.9091 490.84H56.4531C56.4211 490.381 56.2345 490.013 55.8931 489.736C55.5625 489.459 55.1145 489.32 54.5491 489.32C54.0265 489.32 53.6105 489.432 53.3011 489.656C52.9918 489.88 52.8371 490.173 52.8371 490.536C52.8371 490.824 52.9278 491.064 53.1091 491.256C53.3011 491.437 53.5358 491.587 53.8131 491.704C54.1011 491.811 54.4958 491.933 54.9971 492.072C55.6265 492.243 56.1385 492.413 56.5331 492.584C56.9278 492.744 57.2638 492.989 57.5411 493.32C57.8291 493.651 57.9785 494.083 57.9891 494.616C57.9891 495.096 57.8558 495.528 57.5891 495.912C57.3225 496.296 56.9438 496.6 56.4531 496.824C55.9731 497.037 55.4185 497.144 54.7891 497.144ZM64.3965 488.072C65.0578 488.072 65.6552 488.216 66.1885 488.504C66.7218 488.781 67.1378 489.203 67.4365 489.768C67.7458 490.333 67.9005 491.021 67.9005 491.832V497H66.4605V492.04C66.4605 491.165 66.2418 490.499 65.8045 490.04C65.3672 489.571 64.7698 489.336 64.0125 489.336C63.2445 489.336 62.6312 489.576 62.1725 490.056C61.7245 490.536 61.5005 491.235 61.5005 492.152V497H60.0445V485.16H61.5005V489.48C61.7885 489.032 62.1832 488.685 62.6845 488.44C63.1965 488.195 63.7672 488.072 64.3965 488.072ZM69.7349 492.584C69.7349 491.688 69.9162 490.904 70.2789 490.232C70.6415 489.549 71.1375 489.021 71.7669 488.648C72.4069 488.275 73.1162 488.088 73.8949 488.088C74.6629 488.088 75.3295 488.253 75.8949 488.584C76.4602 488.915 76.8815 489.331 77.1589 489.832V488.232H78.6309V497H77.1589V495.368C76.8709 495.88 76.4389 496.307 75.8629 496.648C75.2975 496.979 74.6362 497.144 73.8789 497.144C73.1002 497.144 72.3962 496.952 71.7669 496.568C71.1375 496.184 70.6415 495.645 70.2789 494.952C69.9162 494.259 69.7349 493.469 69.7349 492.584ZM77.1589 492.6C77.1589 491.939 77.0255 491.363 76.7589 490.872C76.4922 490.381 76.1295 490.008 75.6709 489.752C75.2229 489.485 74.7269 489.352 74.1829 489.352C73.6389 489.352 73.1429 489.48 72.6949 489.736C72.2469 489.992 71.8895 490.365 71.6229 490.856C71.3562 491.347 71.2229 491.923 71.2229 492.584C71.2229 493.256 71.3562 493.843 71.6229 494.344C71.8895 494.835 72.2469 495.213 72.6949 495.48C73.1429 495.736 73.6389 495.864 74.1829 495.864C74.7269 495.864 75.2229 495.736 75.6709 495.48C76.1295 495.213 76.4922 494.835 76.7589 494.344C77.0255 493.843 77.1589 493.261 77.1589 492.6ZM80.5474 492.6C80.5474 491.693 80.7287 490.904 81.0914 490.232C81.454 489.549 81.9554 489.021 82.5954 488.648C83.246 488.275 83.9874 488.088 84.8194 488.088C85.8967 488.088 86.782 488.349 87.4754 488.872C88.1794 489.395 88.6434 490.12 88.8674 491.048H87.2994C87.15 490.515 86.8567 490.093 86.4194 489.784C85.9927 489.475 85.4594 489.32 84.8194 489.32C83.9874 489.32 83.3154 489.608 82.8034 490.184C82.2914 490.749 82.0354 491.555 82.0354 492.6C82.0354 493.656 82.2914 494.472 82.8034 495.048C83.3154 495.624 83.9874 495.912 84.8194 495.912C85.4594 495.912 85.9927 495.763 86.4194 495.464C86.846 495.165 87.1394 494.739 87.2994 494.184H88.8674C88.6327 495.08 88.1634 495.8 87.4594 496.344C86.7554 496.877 85.8754 497.144 84.8194 497.144C83.9874 497.144 83.246 496.957 82.5954 496.584C81.9554 496.211 81.454 495.683 81.0914 495C80.7287 494.317 80.5474 493.517 80.5474 492.6ZM95.7061 497L92.2661 493.128V497H90.8101V485.16H92.2661V492.12L95.6421 488.232H97.6741L93.5461 492.6L97.6901 497H95.7061ZM100.501 485.16V497H99.0445V485.16H100.501ZM110.982 492.28C110.982 492.557 110.966 492.851 110.934 493.16H103.926C103.979 494.024 104.273 494.701 104.806 495.192C105.35 495.672 106.006 495.912 106.774 495.912C107.403 495.912 107.926 495.768 108.342 495.48C108.769 495.181 109.067 494.787 109.238 494.296H110.806C110.571 495.139 110.102 495.827 109.398 496.36C108.694 496.883 107.819 497.144 106.774 497.144C105.942 497.144 105.195 496.957 104.534 496.584C103.883 496.211 103.371 495.683 102.998 495C102.625 494.307 102.438 493.507 102.438 492.6C102.438 491.693 102.619 490.899 102.982 490.216C103.345 489.533 103.851 489.011 104.502 488.648C105.163 488.275 105.921 488.088 106.774 488.088C107.606 488.088 108.342 488.269 108.982 488.632C109.622 488.995 110.113 489.496 110.454 490.136C110.806 490.765 110.982 491.48 110.982 492.28ZM109.478 491.976C109.478 491.421 109.355 490.947 109.11 490.552C108.865 490.147 108.529 489.843 108.102 489.64C107.686 489.427 107.222 489.32 106.71 489.32C105.974 489.32 105.345 489.555 104.822 490.024C104.31 490.493 104.017 491.144 103.942 491.976H109.478ZM116.008 497.144C115.336 497.144 114.733 497.032 114.2 496.808C113.667 496.573 113.245 496.253 112.936 495.848C112.627 495.432 112.456 494.957 112.424 494.424H113.928C113.971 494.861 114.173 495.219 114.536 495.496C114.909 495.773 115.395 495.912 115.992 495.912C116.547 495.912 116.984 495.789 117.304 495.544C117.624 495.299 117.784 494.989 117.784 494.616C117.784 494.232 117.613 493.949 117.272 493.768C116.931 493.576 116.403 493.389 115.688 493.208C115.037 493.037 114.504 492.867 114.088 492.696C113.683 492.515 113.331 492.253 113.032 491.912C112.744 491.56 112.6 491.101 112.6 490.536C112.6 490.088 112.733 489.677 113 489.304C113.267 488.931 113.645 488.637 114.136 488.424C114.627 488.2 115.187 488.088 115.816 488.088C116.787 488.088 117.571 488.333 118.168 488.824C118.765 489.315 119.085 489.987 119.128 490.84H117.672C117.64 490.381 117.453 490.013 117.112 489.736C116.781 489.459 116.333 489.32 115.768 489.32C115.245 489.32 114.829 489.432 114.52 489.656C114.211 489.88 114.056 490.173 114.056 490.536C114.056 490.824 114.147 491.064 114.328 491.256C114.52 491.437 114.755 491.587 115.032 491.704C115.32 491.811 115.715 491.933 116.216 492.072C116.845 492.243 117.357 492.413 117.752 492.584C118.147 492.744 118.483 492.989 118.76 493.32C119.048 493.651 119.197 494.083 119.208 494.616C119.208 495.096 119.075 495.528 118.808 495.912C118.541 496.296 118.163 496.6 117.672 496.824C117.192 497.037 116.637 497.144 116.008 497.144ZM129.353 497.144C128.532 497.144 127.785 496.957 127.113 496.584C126.452 496.211 125.929 495.683 125.545 495C125.172 494.307 124.985 493.507 124.985 492.6C124.985 491.704 125.177 490.915 125.561 490.232C125.956 489.539 126.489 489.011 127.161 488.648C127.833 488.275 128.585 488.088 129.417 488.088C130.249 488.088 131.001 488.275 131.673 488.648C132.345 489.011 132.873 489.533 133.257 490.216C133.652 490.899 133.849 491.693 133.849 492.6C133.849 493.507 133.646 494.307 133.241 495C132.846 495.683 132.308 496.211 131.625 496.584C130.942 496.957 130.185 497.144 129.353 497.144ZM129.353 495.864C129.876 495.864 130.366 495.741 130.825 495.496C131.284 495.251 131.652 494.883 131.929 494.392C132.217 493.901 132.361 493.304 132.361 492.6C132.361 491.896 132.222 491.299 131.945 490.808C131.668 490.317 131.305 489.955 130.857 489.72C130.409 489.475 129.924 489.352 129.401 489.352C128.868 489.352 128.377 489.475 127.929 489.72C127.492 489.955 127.14 490.317 126.873 490.808C126.606 491.299 126.473 491.896 126.473 492.6C126.473 493.315 126.601 493.917 126.857 494.408C127.124 494.899 127.476 495.267 127.913 495.512C128.35 495.747 128.83 495.864 129.353 495.864ZM139.331 489.432H137.491V497H136.035V489.432H134.899V488.232H136.035V487.608C136.035 486.627 136.286 485.912 136.787 485.464C137.299 485.005 138.115 484.776 139.235 484.776V485.992C138.595 485.992 138.142 486.12 137.875 486.376C137.619 486.621 137.491 487.032 137.491 487.608V488.232H139.331V489.432ZM30.336 521.144C29.664 521.144 29.0613 521.032 28.528 520.808C27.9947 520.573 27.5733 520.253 27.264 519.848C26.9547 519.432 26.784 518.957 26.752 518.424H28.256C28.2987 518.861 28.5013 519.219 28.864 519.496C29.2373 519.773 29.7227 519.912 30.32 519.912C30.8747 519.912 31.312 519.789 31.632 519.544C31.952 519.299 32.112 518.989 32.112 518.616C32.112 518.232 31.9413 517.949 31.6 517.768C31.2587 517.576 30.7307 517.389 30.016 517.208C29.3653 517.037 28.832 516.867 28.416 516.696C28.0107 516.515 27.6587 516.253 27.36 515.912C27.072 515.56 26.928 515.101 26.928 514.536C26.928 514.088 27.0613 513.677 27.328 513.304C27.5947 512.931 27.9733 512.637 28.464 512.424C28.9547 512.2 29.5147 512.088 30.144 512.088C31.1147 512.088 31.8987 512.333 32.496 512.824C33.0933 513.315 33.4133 513.987 33.456 514.84H32C31.968 514.381 31.7813 514.013 31.44 513.736C31.1093 513.459 30.6613 513.32 30.096 513.32C29.5733 513.32 29.1573 513.432 28.848 513.656C28.5387 513.88 28.384 514.173 28.384 514.536C28.384 514.824 28.4747 515.064 28.656 515.256C28.848 515.437 29.0827 515.587 29.36 515.704C29.648 515.811 30.0427 515.933 30.544 516.072C31.1733 516.243 31.6853 516.413 32.08 516.584C32.4747 516.744 32.8107 516.989 33.088 517.32C33.376 517.651 33.5253 518.083 33.536 518.616C33.536 519.096 33.4027 519.528 33.136 519.912C32.8693 520.296 32.4907 520.6 32 520.824C31.52 521.037 30.9653 521.144 30.336 521.144ZM39.4154 521.144C38.594 521.144 37.8474 520.957 37.1754 520.584C36.514 520.211 35.9914 519.683 35.6074 519C35.234 518.307 35.0474 517.507 35.0474 516.6C35.0474 515.704 35.2394 514.915 35.6234 514.232C36.018 513.539 36.5514 513.011 37.2234 512.648C37.8954 512.275 38.6474 512.088 39.4794 512.088C40.3114 512.088 41.0634 512.275 41.7354 512.648C42.4074 513.011 42.9354 513.533 43.3194 514.216C43.714 514.899 43.9114 515.693 43.9114 516.6C43.9114 517.507 43.7087 518.307 43.3034 519C42.9087 519.683 42.37 520.211 41.6874 520.584C41.0047 520.957 40.2474 521.144 39.4154 521.144ZM39.4154 519.864C39.938 519.864 40.4287 519.741 40.8874 519.496C41.346 519.251 41.714 518.883 41.9914 518.392C42.2794 517.901 42.4234 517.304 42.4234 516.6C42.4234 515.896 42.2847 515.299 42.0074 514.808C41.73 514.317 41.3674 513.955 40.9194 513.72C40.4714 513.475 39.986 513.352 39.4634 513.352C38.93 513.352 38.4394 513.475 37.9914 513.72C37.554 513.955 37.202 514.317 36.9354 514.808C36.6687 515.299 36.5354 515.896 36.5354 516.6C36.5354 517.315 36.6634 517.917 36.9194 518.408C37.186 518.899 37.538 519.267 37.9754 519.512C38.4127 519.747 38.8927 519.864 39.4154 519.864ZM45.2818 516.6C45.2818 515.693 45.4631 514.904 45.8258 514.232C46.1884 513.549 46.6898 513.021 47.3298 512.648C47.9804 512.275 48.7218 512.088 49.5538 512.088C50.6311 512.088 51.5164 512.349 52.2098 512.872C52.9138 513.395 53.3778 514.12 53.6018 515.048H52.0338C51.8844 514.515 51.5911 514.093 51.1538 513.784C50.7271 513.475 50.1938 513.32 49.5538 513.32C48.7218 513.32 48.0498 513.608 47.5378 514.184C47.0258 514.749 46.7698 515.555 46.7698 516.6C46.7698 517.656 47.0258 518.472 47.5378 519.048C48.0498 519.624 48.7218 519.912 49.5538 519.912C50.1938 519.912 50.7271 519.763 51.1538 519.464C51.5804 519.165 51.8738 518.739 52.0338 518.184H53.6018C53.3671 519.08 52.8978 519.8 52.1938 520.344C51.4898 520.877 50.6098 521.144 49.5538 521.144C48.7218 521.144 47.9804 520.957 47.3298 520.584C46.6898 520.211 46.1884 519.683 45.8258 519C45.4631 518.317 45.2818 517.517 45.2818 516.6ZM56.2965 510.808C56.0192 510.808 55.7845 510.712 55.5925 510.52C55.4005 510.328 55.3045 510.093 55.3045 509.816C55.3045 509.539 55.4005 509.304 55.5925 509.112C55.7845 508.92 56.0192 508.824 56.2965 508.824C56.5632 508.824 56.7872 508.92 56.9685 509.112C57.1605 509.304 57.2565 509.539 57.2565 509.816C57.2565 510.093 57.1605 510.328 56.9685 510.52C56.7872 510.712 56.5632 510.808 56.2965 510.808ZM57.0005 512.232V521H55.5445V512.232H57.0005ZM58.938 516.584C58.938 515.688 59.1193 514.904 59.482 514.232C59.8447 513.549 60.3407 513.021 60.97 512.648C61.61 512.275 62.3193 512.088 63.098 512.088C63.866 512.088 64.5327 512.253 65.098 512.584C65.6633 512.915 66.0847 513.331 66.362 513.832V512.232H67.834V521H66.362V519.368C66.074 519.88 65.642 520.307 65.066 520.648C64.5007 520.979 63.8393 521.144 63.082 521.144C62.3033 521.144 61.5993 520.952 60.97 520.568C60.3407 520.184 59.8447 519.645 59.482 518.952C59.1193 518.259 58.938 517.469 58.938 516.584ZM66.362 516.6C66.362 515.939 66.2287 515.363 65.962 514.872C65.6953 514.381 65.3327 514.008 64.874 513.752C64.426 513.485 63.93 513.352 63.386 513.352C62.842 513.352 62.346 513.48 61.898 513.736C61.45 513.992 61.0927 514.365 60.826 514.856C60.5593 515.347 60.426 515.923 60.426 516.584C60.426 517.256 60.5593 517.843 60.826 518.344C61.0927 518.835 61.45 519.213 61.898 519.48C62.346 519.736 62.842 519.864 63.386 519.864C63.93 519.864 64.426 519.736 64.874 519.48C65.3327 519.213 65.6953 518.835 65.962 518.344C66.2287 517.843 66.362 517.261 66.362 516.6ZM71.7505 509.16V521H70.2945V509.16H71.7505ZM89.0416 512.072C89.7243 512.072 90.3323 512.216 90.8656 512.504C91.399 512.781 91.8203 513.203 92.1296 513.768C92.439 514.333 92.5936 515.021 92.5936 515.832V521H91.1536V516.04C91.1536 515.165 90.935 514.499 90.4976 514.04C90.071 513.571 89.4896 513.336 88.7536 513.336C87.9963 513.336 87.3936 513.581 86.9456 514.072C86.4976 514.552 86.2736 515.251 86.2736 516.168V521H84.8336V516.04C84.8336 515.165 84.615 514.499 84.1776 514.04C83.751 513.571 83.1696 513.336 82.4336 513.336C81.6763 513.336 81.0736 513.581 80.6256 514.072C80.1776 514.552 79.9536 515.251 79.9536 516.168V521H78.4976V512.232H79.9536V513.496C80.2416 513.037 80.6256 512.685 81.1056 512.44C81.5963 512.195 82.135 512.072 82.7216 512.072C83.4576 512.072 84.1083 512.237 84.6736 512.568C85.239 512.899 85.6603 513.384 85.9376 514.024C86.183 513.405 86.5883 512.925 87.1536 512.584C87.719 512.243 88.3483 512.072 89.0416 512.072ZM102.982 516.28C102.982 516.557 102.966 516.851 102.934 517.16H95.926C95.9793 518.024 96.2727 518.701 96.806 519.192C97.35 519.672 98.006 519.912 98.774 519.912C99.4033 519.912 99.926 519.768 100.342 519.48C100.769 519.181 101.067 518.787 101.238 518.296H102.806C102.571 519.139 102.102 519.827 101.398 520.36C100.694 520.883 99.8193 521.144 98.774 521.144C97.942 521.144 97.1953 520.957 96.534 520.584C95.8833 520.211 95.3713 519.683 94.998 519C94.6247 518.307 94.438 517.507 94.438 516.6C94.438 515.693 94.6193 514.899 94.982 514.216C95.3447 513.533 95.8513 513.011 96.502 512.648C97.1633 512.275 97.9207 512.088 98.774 512.088C99.606 512.088 100.342 512.269 100.982 512.632C101.622 512.995 102.113 513.496 102.454 514.136C102.806 514.765 102.982 515.48 102.982 516.28ZM101.478 515.976C101.478 515.421 101.355 514.947 101.11 514.552C100.865 514.147 100.529 513.843 100.102 513.64C99.686 513.427 99.222 513.32 98.71 513.32C97.974 513.32 97.3447 513.555 96.822 514.024C96.31 514.493 96.0167 515.144 95.942 515.976H101.478ZM104.36 516.584C104.36 515.688 104.541 514.904 104.904 514.232C105.267 513.549 105.763 513.021 106.392 512.648C107.032 512.275 107.747 512.088 108.536 512.088C109.219 512.088 109.853 512.248 110.44 512.568C111.027 512.877 111.475 513.288 111.784 513.8V509.16H113.256V521H111.784V519.352C111.496 519.875 111.069 520.307 110.504 520.648C109.939 520.979 109.277 521.144 108.52 521.144C107.741 521.144 107.032 520.952 106.392 520.568C105.763 520.184 105.267 519.645 104.904 518.952C104.541 518.259 104.36 517.469 104.36 516.584ZM111.784 516.6C111.784 515.939 111.651 515.363 111.384 514.872C111.117 514.381 110.755 514.008 110.296 513.752C109.848 513.485 109.352 513.352 108.808 513.352C108.264 513.352 107.768 513.48 107.32 513.736C106.872 513.992 106.515 514.365 106.248 514.856C105.981 515.347 105.848 515.923 105.848 516.584C105.848 517.256 105.981 517.843 106.248 518.344C106.515 518.835 106.872 519.213 107.32 519.48C107.768 519.736 108.264 519.864 108.808 519.864C109.352 519.864 109.848 519.736 110.296 519.48C110.755 519.213 111.117 518.835 111.384 518.344C111.651 517.843 111.784 517.261 111.784 516.6ZM116.468 510.808C116.191 510.808 115.956 510.712 115.764 510.52C115.572 510.328 115.476 510.093 115.476 509.816C115.476 509.539 115.572 509.304 115.764 509.112C115.956 508.92 116.191 508.824 116.468 508.824C116.735 508.824 116.959 508.92 117.14 509.112C117.332 509.304 117.428 509.539 117.428 509.816C117.428 510.093 117.332 510.328 117.14 510.52C116.959 510.712 116.735 510.808 116.468 510.808ZM117.172 512.232V521H115.716V512.232H117.172ZM119.11 516.584C119.11 515.688 119.291 514.904 119.654 514.232C120.017 513.549 120.513 513.021 121.142 512.648C121.782 512.275 122.491 512.088 123.27 512.088C124.038 512.088 124.705 512.253 125.27 512.584C125.835 512.915 126.257 513.331 126.534 513.832V512.232H128.006V521H126.534V519.368C126.246 519.88 125.814 520.307 125.238 520.648C124.673 520.979 124.011 521.144 123.254 521.144C122.475 521.144 121.771 520.952 121.142 520.568C120.513 520.184 120.017 519.645 119.654 518.952C119.291 518.259 119.11 517.469 119.11 516.584ZM126.534 516.6C126.534 515.939 126.401 515.363 126.134 514.872C125.867 514.381 125.505 514.008 125.046 513.752C124.598 513.485 124.102 513.352 123.558 513.352C123.014 513.352 122.518 513.48 122.07 513.736C121.622 513.992 121.265 514.365 120.998 514.856C120.731 515.347 120.598 515.923 120.598 516.584C120.598 517.256 120.731 517.843 120.998 518.344C121.265 518.835 121.622 519.213 122.07 519.48C122.518 519.736 123.014 519.864 123.558 519.864C124.102 519.864 124.598 519.736 125.046 519.48C125.505 519.213 125.867 518.835 126.134 518.344C126.401 517.843 126.534 517.261 126.534 516.6ZM132.354 509.848L132.178 517.848H130.962L130.786 509.848H132.354ZM131.634 521.096C131.357 521.096 131.122 521 130.93 520.808C130.738 520.616 130.642 520.381 130.642 520.104C130.642 519.827 130.738 519.592 130.93 519.4C131.122 519.208 131.357 519.112 131.634 519.112C131.901 519.112 132.125 519.208 132.306 519.4C132.498 519.592 132.594 519.827 132.594 520.104C132.594 520.381 132.498 520.616 132.306 520.808C132.125 521 131.901 521.096 131.634 521.096Z" fill="black"/>
    <path d="M71.1938 236.712C71.7378 236.28 71.9858 236.08 71.9378 236.112C73.5058 234.816 74.7378 233.752 75.6338 232.92C76.5458 232.088 77.3138 231.216 77.9378 230.304C78.5618 229.392 78.8738 228.504 78.8738 227.64C78.8738 226.984 78.7218 226.472 78.4178 226.104C78.1138 225.736 77.6578 225.552 77.0498 225.552C76.4418 225.552 75.9618 225.784 75.6098 226.248C75.2738 226.696 75.1058 227.336 75.1058 228.168H71.1458C71.1778 226.808 71.4658 225.672 72.0098 224.76C72.5698 223.848 73.2978 223.176 74.1938 222.744C75.1058 222.312 76.1138 222.096 77.2178 222.096C79.1218 222.096 80.5538 222.584 81.5138 223.56C82.4898 224.536 82.9778 225.808 82.9778 227.376C82.9778 229.088 82.3938 230.68 81.2258 232.152C80.0578 233.608 78.5698 235.032 76.7618 236.424H83.2418V239.76H71.1938V236.712ZM87.3768 240.192C86.6568 240.192 86.0648 239.984 85.6008 239.568C85.1528 239.136 84.9288 238.608 84.9288 237.984C84.9288 237.344 85.1528 236.808 85.6008 236.376C86.0648 235.944 86.6568 235.728 87.3768 235.728C88.0808 235.728 88.6568 235.944 89.1048 236.376C89.5688 236.808 89.8008 237.344 89.8008 237.984C89.8008 238.608 89.5688 239.136 89.1048 239.568C88.6568 239.984 88.0808 240.192 87.3768 240.192Z" fill="black"/>
    <path d="M70.5717 432.424C70.6357 430.712 71.1957 429.392 72.2517 428.464C73.3077 427.536 74.7397 427.072 76.5477 427.072C77.7477 427.072 78.7717 427.28 79.6197 427.696C80.4837 428.112 81.1317 428.68 81.5637 429.4C82.0117 430.12 82.2357 430.928 82.2357 431.824C82.2357 432.88 81.9717 433.744 81.4437 434.416C80.9157 435.072 80.2997 435.52 79.5957 435.76V435.856C80.5077 436.16 81.2277 436.664 81.7557 437.368C82.2837 438.072 82.5477 438.976 82.5477 440.08C82.5477 441.072 82.3157 441.952 81.8517 442.72C81.4037 443.472 80.7397 444.064 79.8597 444.496C78.9957 444.928 77.9637 445.144 76.7637 445.144C74.8437 445.144 73.3077 444.672 72.1557 443.728C71.0197 442.784 70.4197 441.36 70.3557 439.456H74.3397C74.3557 440.16 74.5557 440.72 74.9397 441.136C75.3237 441.536 75.8837 441.736 76.6197 441.736C77.2437 441.736 77.7237 441.56 78.0597 441.208C78.4117 440.84 78.5877 440.36 78.5877 439.768C78.5877 439 78.3397 438.448 77.8437 438.112C77.3637 437.76 76.5877 437.584 75.5157 437.584H74.7477V434.248H75.5157C76.3317 434.248 76.9877 434.112 77.4837 433.84C77.9957 433.552 78.2517 433.048 78.2517 432.328C78.2517 431.752 78.0917 431.304 77.7717 430.984C77.4517 430.664 77.0117 430.504 76.4517 430.504C75.8437 430.504 75.3877 430.688 75.0837 431.056C74.7957 431.424 74.6277 431.88 74.5797 432.424H70.5717ZM87.2869 445.192C86.5669 445.192 85.9749 444.984 85.5109 444.568C85.0629 444.136 84.8389 443.608 84.8389 442.984C84.8389 442.344 85.0629 441.808 85.5109 441.376C85.9749 440.944 86.5669 440.728 87.2869 440.728C87.9909 440.728 88.5669 440.944 89.0149 441.376C89.4789 441.808 89.7109 442.344 89.7109 442.984C89.7109 443.608 89.4789 444.136 89.0149 444.568C88.5669 444.984 87.9909 445.192 87.2869 445.192Z" fill="black"/>
    <path d="M73.7496 21.296V17.48H80.3976V35H76.1256V21.296H73.7496ZM85.533 35.192C84.813 35.192 84.221 34.984 83.757 34.568C83.309 34.136 83.085 33.608 83.085 32.984C83.085 32.344 83.309 31.808 83.757 31.376C84.221 30.944 84.813 30.728 85.533 30.728C86.237 30.728 86.813 30.944 87.261 31.376C87.725 31.808 87.957 32.344 87.957 32.984C87.957 33.608 87.725 34.136 87.261 34.568C86.813 34.984 86.237 35.192 85.533 35.192Z" fill="black"/>
    </svg>
    