<svg width="627" height="136" viewBox="0 0 627 136" fill="none" xmlns="http://www.w3.org/2000/svg">
    <rect width="161" height="136" fill="#86EFAC"/>
    <rect x="233" width="161" height="136" fill="#86EFAC"/>
    <rect x="466" width="161" height="136" fill="#86EFAC"/>
    <path d="M231.061 69.0607C231.646 68.4749 231.646 67.5251 231.061 66.9393L221.515 57.3934C220.929 56.8076 219.979 56.8076 219.393 57.3934C218.808 57.9792 218.808 58.9289 219.393 59.5147L227.879 68L219.393 76.4853C218.808 77.0711 218.808 78.0208 219.393 78.6066C219.979 79.1924 220.929 79.1924 221.515 78.6066L231.061 69.0607ZM161 69.5H230V66.5H161V69.5Z" fill="#166534"/>
    <path d="M467.061 69.0607C467.646 68.4749 467.646 67.5251 467.061 66.9393L457.515 57.3934C456.929 56.8076 455.979 56.8076 455.393 57.3934C454.808 57.9792 454.808 58.9289 455.393 59.5147L463.879 68L455.393 76.4853C454.808 77.0711 454.808 78.0208 455.393 78.6066C455.979 79.1924 456.929 79.1924 457.515 78.6066L467.061 69.0607ZM397 69.5H466V66.5H397V69.5Z" fill="#166534"/>
    <path d="M33.9771 61.816H37.8811V63H32.5211V51.848H33.9771V61.816ZM43.2513 63.144C42.43 63.144 41.6833 62.9573 41.0113 62.584C40.35 62.2107 39.8273 61.6827 39.4433 61C39.07 60.3067 38.8833 59.5067 38.8833 58.6C38.8833 57.704 39.0753 56.9147 39.4593 56.232C39.854 55.5387 40.3873 55.0107 41.0593 54.648C41.7313 54.2747 42.4833 54.088 43.3153 54.088C44.1473 54.088 44.8993 54.2747 45.5713 54.648C46.2433 55.0107 46.7713 55.5333 47.1553 56.216C47.55 56.8987 47.7473 57.6933 47.7473 58.6C47.7473 59.5067 47.5446 60.3067 47.1393 61C46.7446 61.6827 46.206 62.2107 45.5233 62.584C44.8406 62.9573 44.0833 63.144 43.2513 63.144ZM43.2513 61.864C43.774 61.864 44.2646 61.7413 44.7233 61.496C45.182 61.2507 45.55 60.8827 45.8273 60.392C46.1153 59.9013 46.2593 59.304 46.2593 58.6C46.2593 57.896 46.1206 57.2987 45.8433 56.808C45.566 56.3173 45.2033 55.9547 44.7553 55.72C44.3073 55.4747 43.822 55.352 43.2993 55.352C42.766 55.352 42.2753 55.4747 41.8273 55.72C41.39 55.9547 41.038 56.3173 40.7713 56.808C40.5046 57.2987 40.3713 57.896 40.3713 58.6C40.3713 59.3147 40.4993 59.9173 40.7553 60.408C41.022 60.8987 41.374 61.2667 41.8113 61.512C42.2486 61.7467 42.7286 61.864 43.2513 61.864ZM53.2777 54.088C54.035 54.088 54.6964 54.2533 55.2617 54.584C55.8377 54.9147 56.2644 55.3307 56.5417 55.832V54.232H58.0137V63.192C58.0137 63.992 57.843 64.7013 57.5017 65.32C57.1604 65.9493 56.6697 66.44 56.0297 66.792C55.4004 67.144 54.6644 67.32 53.8217 67.32C52.6697 67.32 51.7097 67.048 50.9417 66.504C50.1737 65.96 49.7204 65.2187 49.5817 64.28H51.0217C51.1817 64.8133 51.5124 65.24 52.0137 65.56C52.515 65.8907 53.1177 66.056 53.8217 66.056C54.6217 66.056 55.2724 65.8053 55.7737 65.304C56.2857 64.8027 56.5417 64.0987 56.5417 63.192V61.352C56.2537 61.864 55.827 62.2907 55.2617 62.632C54.6964 62.9733 54.035 63.144 53.2777 63.144C52.499 63.144 51.7897 62.952 51.1497 62.568C50.5204 62.184 50.0244 61.6453 49.6617 60.952C49.299 60.2587 49.1177 59.4693 49.1177 58.584C49.1177 57.688 49.299 56.904 49.6617 56.232C50.0244 55.5493 50.5204 55.0213 51.1497 54.648C51.7897 54.2747 52.499 54.088 53.2777 54.088ZM56.5417 58.6C56.5417 57.9387 56.4084 57.3627 56.1417 56.872C55.875 56.3813 55.5124 56.008 55.0537 55.752C54.6057 55.4853 54.1097 55.352 53.5657 55.352C53.0217 55.352 52.5257 55.48 52.0777 55.736C51.6297 55.992 51.2724 56.3653 51.0057 56.856C50.739 57.3467 50.6057 57.9227 50.6057 58.584C50.6057 59.256 50.739 59.8427 51.0057 60.344C51.2724 60.8347 51.6297 61.2133 52.0777 61.48C52.5257 61.736 53.0217 61.864 53.5657 61.864C54.1097 61.864 54.6057 61.736 55.0537 61.48C55.5124 61.2133 55.875 60.8347 56.1417 60.344C56.4084 59.8427 56.5417 59.2613 56.5417 58.6ZM61.2262 52.808C60.9489 52.808 60.7142 52.712 60.5222 52.52C60.3302 52.328 60.2342 52.0933 60.2342 51.816C60.2342 51.5387 60.3302 51.304 60.5222 51.112C60.7142 50.92 60.9489 50.824 61.2262 50.824C61.4929 50.824 61.7169 50.92 61.8982 51.112C62.0902 51.304 62.1862 51.5387 62.1862 51.816C62.1862 52.0933 62.0902 52.328 61.8982 52.52C61.7169 52.712 61.4929 52.808 61.2262 52.808ZM61.9302 54.232V63H60.4742V54.232H61.9302ZM68.6837 54.072C69.7504 54.072 70.6144 54.3973 71.2757 55.048C71.937 55.688 72.2677 56.616 72.2677 57.832V63H70.8277V58.04C70.8277 57.1653 70.609 56.4987 70.1717 56.04C69.7344 55.5707 69.137 55.336 68.3797 55.336C67.6117 55.336 66.9984 55.576 66.5397 56.056C66.0917 56.536 65.8677 57.2347 65.8677 58.152V63H64.4117V54.232H65.8677V55.48C66.1557 55.032 66.545 54.6853 67.0357 54.44C67.537 54.1947 68.0864 54.072 68.6837 54.072ZM80.6877 55.432V60.6C80.6877 61.0267 80.7784 61.3307 80.9597 61.512C81.141 61.6827 81.4557 61.768 81.9037 61.768H82.9757V63H81.6637C80.853 63 80.245 62.8133 79.8397 62.44C79.4344 62.0667 79.2317 61.4533 79.2317 60.6V55.432H78.0957V54.232H79.2317V52.024H80.6877V54.232H82.9757V55.432H80.6877ZM88.5638 63.144C87.7425 63.144 86.9958 62.9573 86.3238 62.584C85.6625 62.2107 85.1398 61.6827 84.7558 61C84.3825 60.3067 84.1958 59.5067 84.1958 58.6C84.1958 57.704 84.3878 56.9147 84.7718 56.232C85.1665 55.5387 85.6998 55.0107 86.3718 54.648C87.0438 54.2747 87.7958 54.088 88.6278 54.088C89.4598 54.088 90.2118 54.2747 90.8838 54.648C91.5558 55.0107 92.0838 55.5333 92.4678 56.216C92.8625 56.8987 93.0598 57.6933 93.0598 58.6C93.0598 59.5067 92.8571 60.3067 92.4518 61C92.0571 61.6827 91.5185 62.2107 90.8358 62.584C90.1531 62.9573 89.3958 63.144 88.5638 63.144ZM88.5638 61.864C89.0865 61.864 89.5771 61.7413 90.0358 61.496C90.4945 61.2507 90.8625 60.8827 91.1398 60.392C91.4278 59.9013 91.5718 59.304 91.5718 58.6C91.5718 57.896 91.4331 57.2987 91.1558 56.808C90.8785 56.3173 90.5158 55.9547 90.0678 55.72C89.6198 55.4747 89.1345 55.352 88.6118 55.352C88.0785 55.352 87.5878 55.4747 87.1398 55.72C86.7025 55.9547 86.3505 56.3173 86.0838 56.808C85.8171 57.2987 85.6838 57.896 85.6838 58.6C85.6838 59.3147 85.8118 59.9173 86.0678 60.408C86.3345 60.8987 86.6865 61.2667 87.1238 61.512C87.5611 61.7467 88.0411 61.864 88.5638 61.864ZM103.064 63.144C102.242 63.144 101.496 62.9573 100.824 62.584C100.162 62.2107 99.6398 61.6827 99.2558 61C98.8825 60.3067 98.6958 59.5067 98.6958 58.6C98.6958 57.704 98.8878 56.9147 99.2718 56.232C99.6665 55.5387 100.2 55.0107 100.872 54.648C101.544 54.2747 102.296 54.088 103.128 54.088C103.96 54.088 104.712 54.2747 105.384 54.648C106.056 55.0107 106.584 55.5333 106.968 56.216C107.362 56.8987 107.56 57.6933 107.56 58.6C107.56 59.5067 107.357 60.3067 106.952 61C106.557 61.6827 106.018 62.2107 105.336 62.584C104.653 62.9573 103.896 63.144 103.064 63.144ZM103.064 61.864C103.586 61.864 104.077 61.7413 104.536 61.496C104.994 61.2507 105.362 60.8827 105.64 60.392C105.928 59.9013 106.072 59.304 106.072 58.6C106.072 57.896 105.933 57.2987 105.656 56.808C105.378 56.3173 105.016 55.9547 104.568 55.72C104.12 55.4747 103.634 55.352 103.112 55.352C102.578 55.352 102.088 55.4747 101.64 55.72C101.202 55.9547 100.85 56.3173 100.584 56.808C100.317 57.2987 100.184 57.896 100.184 58.6C100.184 59.3147 100.312 59.9173 100.568 60.408C100.834 60.8987 101.186 61.2667 101.624 61.512C102.061 61.7467 102.541 61.864 103.064 61.864ZM117.25 54.232V63H115.794V61.704C115.517 62.152 115.128 62.504 114.626 62.76C114.136 63.0053 113.592 63.128 112.994 63.128C112.312 63.128 111.698 62.9893 111.154 62.712C110.61 62.424 110.178 61.9973 109.858 61.432C109.549 60.8667 109.394 60.1787 109.394 59.368V54.232H110.834V59.176C110.834 60.04 111.053 60.7067 111.49 61.176C111.928 61.6347 112.525 61.864 113.282 61.864C114.061 61.864 114.674 61.624 115.122 61.144C115.57 60.664 115.794 59.9653 115.794 59.048V54.232H117.25ZM121.165 55.656C121.421 55.1547 121.783 54.7653 122.253 54.488C122.733 54.2107 123.314 54.072 123.997 54.072V55.576H123.613C121.981 55.576 121.165 56.4613 121.165 58.232V63H119.709V54.232H121.165V55.656ZM46.1358 81.24C46.7864 81.3787 47.3091 81.704 47.7038 82.216C48.0984 82.7173 48.2958 83.2933 48.2958 83.944C48.2958 84.8827 47.9651 85.6293 47.3038 86.184C46.6531 86.728 45.7411 87 44.5678 87H39.3358V75.768H44.3918C45.5331 75.768 46.4238 76.0293 47.0638 76.552C47.7144 77.0747 48.0398 77.784 48.0398 78.68C48.0398 79.3413 47.8638 79.8907 47.5118 80.328C47.1704 80.7653 46.7118 81.0693 46.1358 81.24ZM42.0718 80.312H43.8638C44.3118 80.312 44.6531 80.216 44.8878 80.024C45.1331 79.8213 45.2558 79.528 45.2558 79.144C45.2558 78.76 45.1331 78.4667 44.8878 78.264C44.6531 78.0613 44.3118 77.96 43.8638 77.96H42.0718V80.312ZM44.0878 84.792C44.5464 84.792 44.8984 84.6907 45.1438 84.488C45.3998 84.2747 45.5278 83.9707 45.5278 83.576C45.5278 83.1813 45.3944 82.872 45.1278 82.648C44.8718 82.424 44.5144 82.312 44.0558 82.312H42.0718V84.792H44.0878ZM52.6186 79.56C52.9386 79.0693 53.3386 78.6853 53.8186 78.408C54.2986 78.12 54.832 77.976 55.4186 77.976V80.872H54.6666C53.984 80.872 53.472 81.0213 53.1306 81.32C52.7893 81.608 52.6186 82.12 52.6186 82.856V87H49.8826V78.072H52.6186V79.56ZM65.1424 82.392C65.1424 82.648 65.1264 82.9147 65.0944 83.192H58.9024C58.945 83.7467 59.121 84.1733 59.4304 84.472C59.7504 84.76 60.1397 84.904 60.5984 84.904C61.281 84.904 61.7557 84.616 62.0224 84.04H64.9344C64.785 84.6267 64.513 85.1547 64.1184 85.624C63.7344 86.0933 63.249 86.4613 62.6624 86.728C62.0757 86.9947 61.4197 87.128 60.6944 87.128C59.8197 87.128 59.041 86.9413 58.3584 86.568C57.6757 86.1947 57.1424 85.6613 56.7584 84.968C56.3744 84.2747 56.1824 83.464 56.1824 82.536C56.1824 81.608 56.369 80.7973 56.7424 80.104C57.1264 79.4107 57.6597 78.8773 58.3424 78.504C59.025 78.1307 59.809 77.944 60.6944 77.944C61.5584 77.944 62.3264 78.1253 62.9984 78.488C63.6704 78.8507 64.193 79.368 64.5664 80.04C64.9504 80.712 65.1424 81.496 65.1424 82.392ZM62.3424 81.672C62.3424 81.2027 62.1824 80.8293 61.8624 80.552C61.5424 80.2747 61.1424 80.136 60.6624 80.136C60.2037 80.136 59.8144 80.2693 59.4944 80.536C59.185 80.8027 58.993 81.1813 58.9184 81.672H62.3424ZM66.0418 82.52C66.0418 81.6027 66.2124 80.7973 66.5538 80.104C66.9058 79.4107 67.3804 78.8773 67.9778 78.504C68.5751 78.1307 69.2418 77.944 69.9778 77.944C70.6071 77.944 71.1564 78.072 71.6258 78.328C72.1058 78.584 72.4738 78.92 72.7298 79.336V78.072H75.4658V87H72.7298V85.736C72.4631 86.152 72.0898 86.488 71.6098 86.744C71.1404 87 70.5911 87.128 69.9618 87.128C69.2364 87.128 68.5751 86.9413 67.9778 86.568C67.3804 86.184 66.9058 85.6453 66.5538 84.952C66.2124 84.248 66.0418 83.4373 66.0418 82.52ZM72.7298 82.536C72.7298 81.8533 72.5378 81.3147 72.1538 80.92C71.7804 80.5253 71.3218 80.328 70.7778 80.328C70.2338 80.328 69.7698 80.5253 69.3858 80.92C69.0124 81.304 68.8258 81.8373 68.8258 82.52C68.8258 83.2027 69.0124 83.7467 69.3858 84.152C69.7698 84.5467 70.2338 84.744 70.7778 84.744C71.3218 84.744 71.7804 84.5467 72.1538 84.152C72.5378 83.7573 72.7298 83.2187 72.7298 82.536ZM82.9011 87L80.1811 83.256V87H77.4451V75.16H80.1811V81.704L82.8851 78.072H86.2611L82.5491 82.552L86.2931 87H82.9011ZM94.6478 75.768V77.96H90.0718V80.328H93.4958V82.456H90.0718V87H87.3358V75.768H94.6478ZM98.8218 79.56C99.1418 79.0693 99.5418 78.6853 100.022 78.408C100.502 78.12 101.035 77.976 101.622 77.976V80.872H100.87C100.187 80.872 99.6751 81.0213 99.3338 81.32C98.9924 81.608 98.8218 82.12 98.8218 82.856V87H96.0858V78.072H98.8218V79.56ZM111.345 82.392C111.345 82.648 111.33 82.9147 111.298 83.192H105.106C105.148 83.7467 105.324 84.1733 105.634 84.472C105.954 84.76 106.343 84.904 106.802 84.904C107.484 84.904 107.959 84.616 108.226 84.04H111.138C110.988 84.6267 110.716 85.1547 110.322 85.624C109.938 86.0933 109.452 86.4613 108.866 86.728C108.279 86.9947 107.623 87.128 106.898 87.128C106.023 87.128 105.244 86.9413 104.562 86.568C103.879 86.1947 103.346 85.6613 102.962 84.968C102.578 84.2747 102.386 83.464 102.386 82.536C102.386 81.608 102.572 80.7973 102.946 80.104C103.33 79.4107 103.863 78.8773 104.546 78.504C105.228 78.1307 106.012 77.944 106.898 77.944C107.762 77.944 108.53 78.1253 109.202 78.488C109.874 78.8507 110.396 79.368 110.77 80.04C111.154 80.712 111.345 81.496 111.345 82.392ZM108.546 81.672C108.546 81.2027 108.386 80.8293 108.066 80.552C107.746 80.2747 107.346 80.136 106.866 80.136C106.407 80.136 106.018 80.2693 105.698 80.536C105.388 80.8027 105.196 81.1813 105.122 81.672H108.546ZM121.205 82.392C121.205 82.648 121.189 82.9147 121.157 83.192H114.965C115.008 83.7467 115.184 84.1733 115.493 84.472C115.813 84.76 116.202 84.904 116.661 84.904C117.344 84.904 117.818 84.616 118.085 84.04H120.997C120.848 84.6267 120.576 85.1547 120.181 85.624C119.797 86.0933 119.312 86.4613 118.725 86.728C118.138 86.9947 117.482 87.128 116.757 87.128C115.882 87.128 115.104 86.9413 114.421 86.568C113.738 86.1947 113.205 85.6613 112.821 84.968C112.437 84.2747 112.245 83.464 112.245 82.536C112.245 81.608 112.432 80.7973 112.805 80.104C113.189 79.4107 113.722 78.8773 114.405 78.504C115.088 78.1307 115.872 77.944 116.757 77.944C117.621 77.944 118.389 78.1253 119.061 78.488C119.733 78.8507 120.256 79.368 120.629 80.04C121.013 80.712 121.205 81.496 121.205 82.392ZM118.405 81.672C118.405 81.2027 118.245 80.8293 117.925 80.552C117.605 80.2747 117.205 80.136 116.725 80.136C116.266 80.136 115.877 80.2693 115.557 80.536C115.248 80.8027 115.056 81.1813 114.981 81.672H118.405ZM54.0109 103.432H52.1709V111H50.7149V103.432H49.5789V102.232H50.7149V101.608C50.7149 100.627 50.9656 99.912 51.4669 99.464C51.9789 99.0053 52.7949 98.776 53.9149 98.776V99.992C53.2749 99.992 52.8216 100.12 52.5549 100.376C52.2989 100.621 52.1709 101.032 52.1709 101.608V102.232H54.0109V103.432ZM59.5326 111.144C58.7112 111.144 57.9646 110.957 57.2926 110.584C56.6312 110.211 56.1086 109.683 55.7246 109C55.3512 108.307 55.1646 107.507 55.1646 106.6C55.1646 105.704 55.3566 104.915 55.7406 104.232C56.1352 103.539 56.6686 103.011 57.3406 102.648C58.0126 102.275 58.7646 102.088 59.5966 102.088C60.4286 102.088 61.1806 102.275 61.8526 102.648C62.5246 103.011 63.0526 103.533 63.4366 104.216C63.8312 104.899 64.0286 105.693 64.0286 106.6C64.0286 107.507 63.8259 108.307 63.4206 109C63.0259 109.683 62.4872 110.211 61.8046 110.584C61.1219 110.957 60.3646 111.144 59.5326 111.144ZM59.5326 109.864C60.0552 109.864 60.5459 109.741 61.0046 109.496C61.4632 109.251 61.8312 108.883 62.1086 108.392C62.3966 107.901 62.5406 107.304 62.5406 106.6C62.5406 105.896 62.4019 105.299 62.1246 104.808C61.8472 104.317 61.4846 103.955 61.0366 103.72C60.5886 103.475 60.1032 103.352 59.5806 103.352C59.0472 103.352 58.5566 103.475 58.1086 103.72C57.6712 103.955 57.3192 104.317 57.0526 104.808C56.7859 105.299 56.6526 105.896 56.6526 106.6C56.6526 107.315 56.7806 107.917 57.0366 108.408C57.3032 108.899 57.6552 109.267 58.0926 109.512C58.5299 109.747 59.0099 109.864 59.5326 109.864ZM67.3989 103.656C67.6549 103.155 68.0176 102.765 68.4869 102.488C68.9669 102.211 69.5483 102.072 70.2309 102.072V103.576H69.8469C68.2149 103.576 67.3989 104.461 67.3989 106.232V111H65.9429V102.232H67.3989V103.656ZM79.7453 103.432H77.9053V111H76.4493V103.432H75.3133V102.232H76.4493V101.608C76.4493 100.627 76.7 99.912 77.2013 99.464C77.7133 99.0053 78.5293 98.776 79.6493 98.776V99.992C79.0093 99.992 78.556 100.12 78.2893 100.376C78.0333 100.621 77.9053 101.032 77.9053 101.608V102.232H79.7453V103.432ZM82.8989 103.656C83.1549 103.155 83.5176 102.765 83.9869 102.488C84.4669 102.211 85.0483 102.072 85.7309 102.072V103.576H85.3469C83.7149 103.576 82.8989 104.461 82.8989 106.232V111H81.4429V102.232H82.8989V103.656ZM95.4117 106.28C95.4117 106.557 95.3957 106.851 95.3637 107.16H88.3557C88.409 108.024 88.7024 108.701 89.2357 109.192C89.7797 109.672 90.4357 109.912 91.2037 109.912C91.833 109.912 92.3557 109.768 92.7717 109.48C93.1984 109.181 93.497 108.787 93.6677 108.296H95.2357C95.001 109.139 94.5317 109.827 93.8277 110.36C93.1237 110.883 92.249 111.144 91.2037 111.144C90.3717 111.144 89.625 110.957 88.9637 110.584C88.313 110.211 87.801 109.683 87.4277 109C87.0544 108.307 86.8677 107.507 86.8677 106.6C86.8677 105.693 87.049 104.899 87.4117 104.216C87.7744 103.533 88.281 103.011 88.9317 102.648C89.593 102.275 90.3504 102.088 91.2037 102.088C92.0357 102.088 92.7717 102.269 93.4117 102.632C94.0517 102.995 94.5424 103.496 94.8837 104.136C95.2357 104.765 95.4117 105.48 95.4117 106.28ZM93.9077 105.976C93.9077 105.421 93.785 104.947 93.5397 104.552C93.2944 104.147 92.9584 103.843 92.5317 103.64C92.1157 103.427 91.6517 103.32 91.1397 103.32C90.4037 103.32 89.7744 103.555 89.2517 104.024C88.7397 104.493 88.4464 105.144 88.3717 105.976H93.9077ZM105.334 106.28C105.334 106.557 105.318 106.851 105.286 107.16H98.2776C98.3309 108.024 98.6242 108.701 99.1576 109.192C99.7016 109.672 100.358 109.912 101.126 109.912C101.755 109.912 102.278 109.768 102.694 109.48C103.12 109.181 103.419 108.787 103.59 108.296H105.158C104.923 109.139 104.454 109.827 103.75 110.36C103.046 110.883 102.171 111.144 101.126 111.144C100.294 111.144 99.5469 110.957 98.8856 110.584C98.2349 110.211 97.7229 109.683 97.3496 109C96.9762 108.307 96.7896 107.507 96.7896 106.6C96.7896 105.693 96.9709 104.899 97.3336 104.216C97.6962 103.533 98.2029 103.011 98.8536 102.648C99.5149 102.275 100.272 102.088 101.126 102.088C101.958 102.088 102.694 102.269 103.334 102.632C103.974 102.995 104.464 103.496 104.806 104.136C105.158 104.765 105.334 105.48 105.334 106.28ZM103.83 105.976C103.83 105.421 103.707 104.947 103.462 104.552C103.216 104.147 102.88 103.843 102.454 103.64C102.038 103.427 101.574 103.32 101.062 103.32C100.326 103.32 99.6962 103.555 99.1736 104.024C98.6616 104.493 98.3682 105.144 98.2936 105.976H103.83ZM109.143 99.848L108.967 107.848H107.751L107.575 99.848H109.143ZM108.423 111.096C108.146 111.096 107.911 111 107.719 110.808C107.527 110.616 107.431 110.381 107.431 110.104C107.431 109.827 107.527 109.592 107.719 109.4C107.911 109.208 108.146 109.112 108.423 109.112C108.69 109.112 108.914 109.208 109.095 109.4C109.287 109.592 109.383 109.827 109.383 110.104C109.383 110.381 109.287 110.616 109.095 110.808C108.914 111 108.69 111.096 108.423 111.096Z" fill="black"/>
    <path d="M263.745 63.112C263.009 63.112 262.347 62.984 261.761 62.728C261.185 62.4613 260.731 62.0987 260.401 61.64C260.07 61.1707 259.899 60.632 259.889 60.024H261.441C261.494 60.5467 261.707 60.9893 262.081 61.352C262.465 61.704 263.019 61.88 263.745 61.88C264.438 61.88 264.982 61.7093 265.377 61.368C265.782 61.016 265.985 60.568 265.985 60.024C265.985 59.5973 265.867 59.2507 265.633 58.984C265.398 58.7173 265.105 58.5147 264.753 58.376C264.401 58.2373 263.926 58.088 263.329 57.928C262.593 57.736 262.001 57.544 261.553 57.352C261.115 57.16 260.737 56.8613 260.417 56.456C260.107 56.04 259.953 55.4853 259.953 54.792C259.953 54.184 260.107 53.6453 260.417 53.176C260.726 52.7067 261.158 52.344 261.713 52.088C262.278 51.832 262.923 51.704 263.649 51.704C264.694 51.704 265.547 51.9653 266.209 52.488C266.881 53.0107 267.259 53.704 267.345 54.568H265.745C265.691 54.1413 265.467 53.768 265.073 53.448C264.678 53.1173 264.155 52.952 263.505 52.952C262.897 52.952 262.401 53.112 262.017 53.432C261.633 53.7413 261.441 54.1787 261.441 54.744C261.441 55.1493 261.553 55.48 261.777 55.736C262.011 55.992 262.294 56.1893 262.625 56.328C262.966 56.456 263.441 56.6053 264.049 56.776C264.785 56.9787 265.377 57.1813 265.825 57.384C266.273 57.576 266.657 57.88 266.977 58.296C267.297 58.7013 267.457 59.256 267.457 59.96C267.457 60.504 267.313 61.016 267.025 61.496C266.737 61.976 266.31 62.3653 265.745 62.664C265.179 62.9627 264.513 63.112 263.745 63.112ZM277.599 58.28C277.599 58.5573 277.583 58.8507 277.551 59.16H270.543C270.597 60.024 270.89 60.7013 271.423 61.192C271.967 61.672 272.623 61.912 273.391 61.912C274.021 61.912 274.543 61.768 274.959 61.48C275.386 61.1813 275.685 60.7867 275.855 60.296H277.423C277.189 61.1387 276.719 61.8267 276.015 62.36C275.311 62.8827 274.437 63.144 273.391 63.144C272.559 63.144 271.813 62.9573 271.151 62.584C270.501 62.2107 269.989 61.6827 269.615 61C269.242 60.3067 269.055 59.5067 269.055 58.6C269.055 57.6933 269.237 56.8987 269.599 56.216C269.962 55.5333 270.469 55.0107 271.119 54.648C271.781 54.2747 272.538 54.088 273.391 54.088C274.223 54.088 274.959 54.2693 275.599 54.632C276.239 54.9947 276.73 55.496 277.071 56.136C277.423 56.7653 277.599 57.48 277.599 58.28ZM276.095 57.976C276.095 57.4213 275.973 56.9467 275.727 56.552C275.482 56.1467 275.146 55.8427 274.719 55.64C274.303 55.4267 273.839 55.32 273.327 55.32C272.591 55.32 271.962 55.5547 271.439 56.024C270.927 56.4933 270.634 57.144 270.559 57.976H276.095ZM281.297 55.432V60.6C281.297 61.0267 281.388 61.3307 281.569 61.512C281.75 61.6827 282.065 61.768 282.513 61.768H283.585V63H282.273C281.462 63 280.854 62.8133 280.449 62.44C280.044 62.0667 279.841 61.4533 279.841 60.6V55.432H278.705V54.232H279.841V52.024H281.297V54.232H283.585V55.432H281.297ZM294.351 60.68V63H292.959C291.967 63 291.193 62.76 290.639 62.28C290.084 61.7893 289.807 60.9947 289.807 59.896V56.344H288.719V54.072H289.807V51.896H292.543V54.072H294.335V56.344H292.543V59.928C292.543 60.1947 292.607 60.3867 292.735 60.504C292.863 60.6213 293.076 60.68 293.375 60.68H294.351ZM297.251 53.144C296.771 53.144 296.376 53.0053 296.067 52.728C295.768 52.44 295.619 52.088 295.619 51.672C295.619 51.2453 295.768 50.8933 296.067 50.616C296.376 50.328 296.771 50.184 297.251 50.184C297.72 50.184 298.104 50.328 298.403 50.616C298.712 50.8933 298.867 51.2453 298.867 51.672C298.867 52.088 298.712 52.44 298.403 52.728C298.104 53.0053 297.72 53.144 297.251 53.144ZM298.611 54.072V63H295.875V54.072H298.611ZM311.986 53.976C313.095 53.976 313.975 54.312 314.626 54.984C315.287 55.656 315.618 56.5893 315.618 57.784V63H312.898V58.152C312.898 57.576 312.743 57.1333 312.434 56.824C312.135 56.504 311.719 56.344 311.186 56.344C310.652 56.344 310.231 56.504 309.922 56.824C309.623 57.1333 309.474 57.576 309.474 58.152V63H306.754V58.152C306.754 57.576 306.599 57.1333 306.29 56.824C305.991 56.504 305.575 56.344 305.042 56.344C304.508 56.344 304.087 56.504 303.778 56.824C303.479 57.1333 303.33 57.576 303.33 58.152V63H300.594V54.072H303.33V55.192C303.607 54.8187 303.97 54.5253 304.418 54.312C304.866 54.088 305.372 53.976 305.938 53.976C306.61 53.976 307.207 54.12 307.73 54.408C308.263 54.696 308.679 55.1067 308.978 55.64C309.287 55.1493 309.708 54.7493 310.242 54.44C310.775 54.1307 311.356 53.976 311.986 53.976ZM325.947 58.392C325.947 58.648 325.931 58.9147 325.899 59.192H319.707C319.75 59.7467 319.926 60.1733 320.235 60.472C320.555 60.76 320.944 60.904 321.403 60.904C322.086 60.904 322.56 60.616 322.827 60.04H325.739C325.59 60.6267 325.318 61.1547 324.923 61.624C324.539 62.0933 324.054 62.4613 323.467 62.728C322.88 62.9947 322.224 63.128 321.499 63.128C320.624 63.128 319.846 62.9413 319.163 62.568C318.48 62.1947 317.947 61.6613 317.563 60.968C317.179 60.2747 316.987 59.464 316.987 58.536C316.987 57.608 317.174 56.7973 317.547 56.104C317.931 55.4107 318.464 54.8773 319.147 54.504C319.83 54.1307 320.614 53.944 321.499 53.944C322.363 53.944 323.131 54.1253 323.803 54.488C324.475 54.8507 324.998 55.368 325.371 56.04C325.755 56.712 325.947 57.496 325.947 58.392ZM323.147 57.672C323.147 57.2027 322.987 56.8293 322.667 56.552C322.347 56.2747 321.947 56.136 321.467 56.136C321.008 56.136 320.619 56.2693 320.299 56.536C319.99 56.8027 319.798 57.1813 319.723 57.672H323.147ZM330.126 55.56C330.446 55.0693 330.846 54.6853 331.326 54.408C331.806 54.12 332.34 53.976 332.926 53.976V56.872H332.174C331.492 56.872 330.98 57.0213 330.638 57.32C330.297 57.608 330.126 58.12 330.126 58.856V63H327.39V54.072H330.126V55.56ZM337.866 63.128C337.088 63.128 336.394 62.9947 335.786 62.728C335.178 62.4613 334.698 62.0987 334.346 61.64C333.994 61.1707 333.797 60.648 333.754 60.072H336.458C336.49 60.3813 336.634 60.632 336.89 60.824C337.146 61.016 337.461 61.112 337.834 61.112C338.176 61.112 338.437 61.048 338.618 60.92C338.81 60.7813 338.906 60.6053 338.906 60.392C338.906 60.136 338.773 59.9493 338.506 59.832C338.24 59.704 337.808 59.5653 337.21 59.416C336.57 59.2667 336.037 59.112 335.61 58.952C335.184 58.7813 334.816 58.52 334.506 58.168C334.197 57.8053 334.042 57.32 334.042 56.712C334.042 56.2 334.181 55.736 334.458 55.32C334.746 54.8933 335.162 54.5573 335.706 54.312C336.261 54.0667 336.917 53.944 337.674 53.944C338.794 53.944 339.674 54.2213 340.314 54.776C340.965 55.3307 341.338 56.0667 341.434 56.984H338.906C338.864 56.6747 338.725 56.4293 338.49 56.248C338.266 56.0667 337.968 55.976 337.594 55.976C337.274 55.976 337.029 56.04 336.858 56.168C336.688 56.2853 336.602 56.4507 336.602 56.664C336.602 56.92 336.736 57.112 337.002 57.24C337.28 57.368 337.706 57.496 338.282 57.624C338.944 57.7947 339.482 57.9653 339.898 58.136C340.314 58.296 340.677 58.5627 340.986 58.936C341.306 59.2987 341.472 59.7893 341.482 60.408C341.482 60.9307 341.333 61.4 341.034 61.816C340.746 62.2213 340.325 62.5413 339.77 62.776C339.226 63.0107 338.592 63.128 337.866 63.128ZM350.355 55.432H348.515V63H347.059V55.432H345.923V54.232H347.059V53.608C347.059 52.6267 347.309 51.912 347.811 51.464C348.323 51.0053 349.139 50.776 350.259 50.776V51.992C349.619 51.992 349.165 52.12 348.899 52.376C348.643 52.6213 348.515 53.032 348.515 53.608V54.232H350.355V55.432ZM355.876 63.144C355.055 63.144 354.308 62.9573 353.636 62.584C352.975 62.2107 352.452 61.6827 352.068 61C351.695 60.3067 351.508 59.5067 351.508 58.6C351.508 57.704 351.7 56.9147 352.084 56.232C352.479 55.5387 353.012 55.0107 353.684 54.648C354.356 54.2747 355.108 54.088 355.94 54.088C356.772 54.088 357.524 54.2747 358.196 54.648C358.868 55.0107 359.396 55.5333 359.78 56.216C360.175 56.8987 360.372 57.6933 360.372 58.6C360.372 59.5067 360.17 60.3067 359.764 61C359.37 61.6827 358.831 62.2107 358.148 62.584C357.466 62.9573 356.708 63.144 355.876 63.144ZM355.876 61.864C356.399 61.864 356.89 61.7413 357.348 61.496C357.807 61.2507 358.175 60.8827 358.452 60.392C358.74 59.9013 358.884 59.304 358.884 58.6C358.884 57.896 358.746 57.2987 358.468 56.808C358.191 56.3173 357.828 55.9547 357.38 55.72C356.932 55.4747 356.447 55.352 355.924 55.352C355.391 55.352 354.9 55.4747 354.452 55.72C354.015 55.9547 353.663 56.3173 353.396 56.808C353.13 57.2987 352.996 57.896 352.996 58.6C352.996 59.3147 353.124 59.9173 353.38 60.408C353.647 60.8987 353.999 61.2667 354.436 61.512C354.874 61.7467 355.354 61.864 355.876 61.864ZM363.743 55.656C363.999 55.1547 364.361 54.7653 364.831 54.488C365.311 54.2107 365.892 54.072 366.575 54.072V55.576H366.191C364.559 55.576 363.743 56.4613 363.743 58.232V63H362.287V54.232H363.743V55.656ZM248.696 82.584C248.696 81.688 248.877 80.904 249.24 80.232C249.602 79.5493 250.098 79.0213 250.728 78.648C251.368 78.2747 252.077 78.088 252.856 78.088C253.624 78.088 254.29 78.2533 254.856 78.584C255.421 78.9147 255.842 79.3307 256.12 79.832V78.232H257.592V87H256.12V85.368C255.832 85.88 255.4 86.3067 254.824 86.648C254.258 86.9787 253.597 87.144 252.84 87.144C252.061 87.144 251.357 86.952 250.728 86.568C250.098 86.184 249.602 85.6453 249.24 84.952C248.877 84.2587 248.696 83.4693 248.696 82.584ZM256.12 82.6C256.12 81.9387 255.986 81.3627 255.72 80.872C255.453 80.3813 255.09 80.008 254.632 79.752C254.184 79.4853 253.688 79.352 253.144 79.352C252.6 79.352 252.104 79.48 251.656 79.736C251.208 79.992 250.85 80.3653 250.584 80.856C250.317 81.3467 250.184 81.9227 250.184 82.584C250.184 83.256 250.317 83.8427 250.584 84.344C250.85 84.8347 251.208 85.2133 251.656 85.48C252.104 85.736 252.6 85.864 253.144 85.864C253.688 85.864 254.184 85.736 254.632 85.48C255.09 85.2133 255.453 84.8347 255.72 84.344C255.986 83.8427 256.12 83.2613 256.12 82.6ZM264.324 78.072C265.391 78.072 266.255 78.3973 266.916 79.048C267.578 79.688 267.908 80.616 267.908 81.832V87H266.468V82.04C266.468 81.1653 266.25 80.4987 265.812 80.04C265.375 79.5707 264.778 79.336 264.02 79.336C263.252 79.336 262.639 79.576 262.18 80.056C261.732 80.536 261.508 81.2347 261.508 82.152V87H260.052V78.232H261.508V79.48C261.796 79.032 262.186 78.6853 262.676 78.44C263.178 78.1947 263.727 78.072 264.324 78.072ZM277.839 78.232L272.559 91.128H271.055L272.783 86.904L269.247 78.232H270.863L273.615 85.336L276.335 78.232H277.839ZM295.248 78.232L292.512 87H291.008L288.896 80.04L286.784 87H285.28L282.528 78.232H284.016L286.032 85.592L288.208 78.232H289.696L291.824 85.608L293.808 78.232H295.248ZM304.693 82.28C304.693 82.5573 304.677 82.8507 304.645 83.16H297.637C297.69 84.024 297.984 84.7013 298.517 85.192C299.061 85.672 299.717 85.912 300.485 85.912C301.114 85.912 301.637 85.768 302.053 85.48C302.48 85.1813 302.778 84.7867 302.949 84.296H304.517C304.282 85.1387 303.813 85.8267 303.109 86.36C302.405 86.8827 301.53 87.144 300.485 87.144C299.653 87.144 298.906 86.9573 298.245 86.584C297.594 86.2107 297.082 85.6827 296.709 85C296.336 84.3067 296.149 83.5067 296.149 82.6C296.149 81.6933 296.33 80.8987 296.693 80.216C297.056 79.5333 297.562 79.0107 298.213 78.648C298.874 78.2747 299.632 78.088 300.485 78.088C301.317 78.088 302.053 78.2693 302.693 78.632C303.333 78.9947 303.824 79.496 304.165 80.136C304.517 80.7653 304.693 81.48 304.693 82.28ZM303.189 81.976C303.189 81.4213 303.066 80.9467 302.821 80.552C302.576 80.1467 302.24 79.8427 301.813 79.64C301.397 79.4267 300.933 79.32 300.421 79.32C299.685 79.32 299.056 79.5547 298.533 80.024C298.021 80.4933 297.728 81.144 297.653 81.976H303.189ZM308.071 79.864C308.369 79.3413 308.807 78.9147 309.383 78.584C309.959 78.2533 310.615 78.088 311.351 78.088C312.14 78.088 312.849 78.2747 313.479 78.648C314.108 79.0213 314.604 79.5493 314.967 80.232C315.329 80.904 315.511 81.688 315.511 82.584C315.511 83.4693 315.329 84.2587 314.967 84.952C314.604 85.6453 314.103 86.184 313.463 86.568C312.833 86.952 312.129 87.144 311.351 87.144C310.593 87.144 309.927 86.9787 309.351 86.648C308.785 86.3173 308.359 85.896 308.071 85.384V87H306.615V75.16H308.071V79.864ZM314.023 82.584C314.023 81.9227 313.889 81.3467 313.623 80.856C313.356 80.3653 312.993 79.992 312.535 79.736C312.087 79.48 311.591 79.352 311.047 79.352C310.513 79.352 310.017 79.4853 309.559 79.752C309.111 80.008 308.748 80.3867 308.471 80.888C308.204 81.3787 308.071 81.9493 308.071 82.6C308.071 83.2613 308.204 83.8427 308.471 84.344C308.748 84.8347 309.111 85.2133 309.559 85.48C310.017 85.736 310.513 85.864 311.047 85.864C311.591 85.864 312.087 85.736 312.535 85.48C312.993 85.2133 313.356 84.8347 313.623 84.344C313.889 83.8427 314.023 83.256 314.023 82.584ZM320.531 87.144C319.859 87.144 319.257 87.032 318.723 86.808C318.19 86.5733 317.769 86.2533 317.459 85.848C317.15 85.432 316.979 84.9573 316.947 84.424H318.451C318.494 84.8613 318.697 85.2187 319.059 85.496C319.433 85.7733 319.918 85.912 320.515 85.912C321.07 85.912 321.507 85.7893 321.827 85.544C322.147 85.2987 322.307 84.9893 322.307 84.616C322.307 84.232 322.137 83.9493 321.795 83.768C321.454 83.576 320.926 83.3893 320.211 83.208C319.561 83.0373 319.027 82.8667 318.611 82.696C318.206 82.5147 317.854 82.2533 317.555 81.912C317.267 81.56 317.123 81.1013 317.123 80.536C317.123 80.088 317.257 79.6773 317.523 79.304C317.79 78.9307 318.169 78.6373 318.659 78.424C319.15 78.2 319.71 78.088 320.339 78.088C321.31 78.088 322.094 78.3333 322.691 78.824C323.289 79.3147 323.609 79.9867 323.651 80.84H322.195C322.163 80.3813 321.977 80.0133 321.635 79.736C321.305 79.4587 320.857 79.32 320.291 79.32C319.769 79.32 319.353 79.432 319.043 79.656C318.734 79.88 318.579 80.1733 318.579 80.536C318.579 80.824 318.67 81.064 318.851 81.256C319.043 81.4373 319.278 81.5867 319.555 81.704C319.843 81.8107 320.238 81.9333 320.739 82.072C321.369 82.2427 321.881 82.4133 322.275 82.584C322.67 82.744 323.006 82.9893 323.283 83.32C323.571 83.6507 323.721 84.0827 323.731 84.616C323.731 85.096 323.598 85.528 323.331 85.912C323.065 86.296 322.686 86.6 322.195 86.824C321.715 87.0373 321.161 87.144 320.531 87.144ZM326.539 76.808C326.261 76.808 326.027 76.712 325.835 76.52C325.643 76.328 325.547 76.0933 325.547 75.816C325.547 75.5387 325.643 75.304 325.835 75.112C326.027 74.92 326.261 74.824 326.539 74.824C326.805 74.824 327.029 74.92 327.211 75.112C327.403 75.304 327.499 75.5387 327.499 75.816C327.499 76.0933 327.403 76.328 327.211 76.52C327.029 76.712 326.805 76.808 326.539 76.808ZM327.243 78.232V87H325.787V78.232H327.243ZM331.5 79.432V84.6C331.5 85.0267 331.591 85.3307 331.772 85.512C331.954 85.6827 332.268 85.768 332.716 85.768H333.788V87H332.476C331.666 87 331.058 86.8133 330.652 86.44C330.247 86.0667 330.044 85.4533 330.044 84.6V79.432H328.908V78.232H330.044V76.024H331.5V78.232H333.788V79.432H331.5ZM343.552 82.28C343.552 82.5573 343.536 82.8507 343.504 83.16H336.496C336.55 84.024 336.843 84.7013 337.376 85.192C337.92 85.672 338.576 85.912 339.344 85.912C339.974 85.912 340.496 85.768 340.912 85.48C341.339 85.1813 341.638 84.7867 341.808 84.296H343.376C343.142 85.1387 342.672 85.8267 341.968 86.36C341.264 86.8827 340.39 87.144 339.344 87.144C338.512 87.144 337.766 86.9573 337.104 86.584C336.454 86.2107 335.942 85.6827 335.568 85C335.195 84.3067 335.008 83.5067 335.008 82.6C335.008 81.6933 335.19 80.8987 335.552 80.216C335.915 79.5333 336.422 79.0107 337.072 78.648C337.734 78.2747 338.491 78.088 339.344 78.088C340.176 78.088 340.912 78.2693 341.552 78.632C342.192 78.9947 342.683 79.496 343.024 80.136C343.376 80.7653 343.552 81.48 343.552 82.28ZM342.048 81.976C342.048 81.4213 341.926 80.9467 341.68 80.552C341.435 80.1467 341.099 79.8427 340.672 79.64C340.256 79.4267 339.792 79.32 339.28 79.32C338.544 79.32 337.915 79.5547 337.392 80.024C336.88 80.4933 336.587 81.144 336.512 81.976H342.048ZM357.292 78.232L352.012 91.128H350.508L352.236 86.904L348.7 78.232H350.316L353.068 85.336L355.788 78.232H357.292ZM362.579 87.144C361.758 87.144 361.011 86.9573 360.339 86.584C359.678 86.2107 359.155 85.6827 358.771 85C358.398 84.3067 358.211 83.5067 358.211 82.6C358.211 81.704 358.403 80.9147 358.787 80.232C359.182 79.5387 359.715 79.0107 360.387 78.648C361.059 78.2747 361.811 78.088 362.643 78.088C363.475 78.088 364.227 78.2747 364.899 78.648C365.571 79.0107 366.099 79.5333 366.483 80.216C366.878 80.8987 367.075 81.6933 367.075 82.6C367.075 83.5067 366.873 84.3067 366.467 85C366.073 85.6827 365.534 86.2107 364.851 86.584C364.169 86.9573 363.411 87.144 362.579 87.144ZM362.579 85.864C363.102 85.864 363.593 85.7413 364.051 85.496C364.51 85.2507 364.878 84.8827 365.155 84.392C365.443 83.9013 365.587 83.304 365.587 82.6C365.587 81.896 365.449 81.2987 365.171 80.808C364.894 80.3173 364.531 79.9547 364.083 79.72C363.635 79.4747 363.15 79.352 362.627 79.352C362.094 79.352 361.603 79.4747 361.155 79.72C360.718 79.9547 360.366 80.3173 360.099 80.808C359.833 81.2987 359.699 81.896 359.699 82.6C359.699 83.3147 359.827 83.9173 360.083 84.408C360.35 84.8987 360.702 85.2667 361.139 85.512C361.577 85.7467 362.057 85.864 362.579 85.864ZM376.766 78.232V87H375.31V85.704C375.032 86.152 374.643 86.504 374.142 86.76C373.651 87.0053 373.107 87.128 372.51 87.128C371.827 87.128 371.214 86.9893 370.67 86.712C370.126 86.424 369.694 85.9973 369.374 85.432C369.064 84.8667 368.91 84.1787 368.91 83.368V78.232H370.35V83.176C370.35 84.04 370.568 84.7067 371.006 85.176C371.443 85.6347 372.04 85.864 372.798 85.864C373.576 85.864 374.19 85.624 374.638 85.144C375.086 84.664 375.31 83.9653 375.31 83.048V78.232H376.766ZM301.396 102.232L298.66 111H297.156L295.044 104.04L292.932 111H291.428L288.676 102.232H290.164L292.18 109.592L294.356 102.232H295.844L297.972 109.608L299.956 102.232H301.396ZM302.297 106.584C302.297 105.688 302.479 104.904 302.841 104.232C303.204 103.549 303.7 103.021 304.329 102.648C304.969 102.275 305.679 102.088 306.457 102.088C307.225 102.088 307.892 102.253 308.457 102.584C309.023 102.915 309.444 103.331 309.721 103.832V102.232H311.193V111H309.721V109.368C309.433 109.88 309.001 110.307 308.425 110.648C307.86 110.979 307.199 111.144 306.441 111.144C305.663 111.144 304.959 110.952 304.329 110.568C303.7 110.184 303.204 109.645 302.841 108.952C302.479 108.259 302.297 107.469 302.297 106.584ZM309.721 106.6C309.721 105.939 309.588 105.363 309.321 104.872C309.055 104.381 308.692 104.008 308.233 103.752C307.785 103.485 307.289 103.352 306.745 103.352C306.201 103.352 305.705 103.48 305.257 103.736C304.809 103.992 304.452 104.365 304.185 104.856C303.919 105.347 303.785 105.923 303.785 106.584C303.785 107.256 303.919 107.843 304.185 108.344C304.452 108.835 304.809 109.213 305.257 109.48C305.705 109.736 306.201 109.864 306.745 109.864C307.289 109.864 307.785 109.736 308.233 109.48C308.692 109.213 309.055 108.835 309.321 108.344C309.588 107.843 309.721 107.261 309.721 106.6ZM317.926 102.072C318.993 102.072 319.857 102.397 320.518 103.048C321.179 103.688 321.51 104.616 321.51 105.832V111H320.07V106.04C320.07 105.165 319.851 104.499 319.414 104.04C318.977 103.571 318.379 103.336 317.622 103.336C316.854 103.336 316.241 103.576 315.782 104.056C315.334 104.536 315.11 105.235 315.11 106.152V111H313.654V102.232H315.11V103.48C315.398 103.032 315.787 102.685 316.278 102.44C316.779 102.195 317.329 102.072 317.926 102.072ZM325.664 103.432V108.6C325.664 109.027 325.755 109.331 325.936 109.512C326.118 109.683 326.432 109.768 326.88 109.768H327.952V111H326.64C325.83 111 325.222 110.813 324.816 110.44C324.411 110.067 324.208 109.453 324.208 108.6V103.432H323.072V102.232H324.208V100.024H325.664V102.232H327.952V103.432H325.664ZM331.604 99.848L331.428 107.848H330.212L330.036 99.848H331.604ZM330.884 111.096C330.607 111.096 330.372 111 330.18 110.808C329.988 110.616 329.892 110.381 329.892 110.104C329.892 109.827 329.988 109.592 330.18 109.4C330.372 109.208 330.607 109.112 330.884 109.112C331.151 109.112 331.375 109.208 331.556 109.4C331.748 109.592 331.844 109.827 331.844 110.104C331.844 110.381 331.748 110.616 331.556 110.808C331.375 111 331.151 111.096 330.884 111.096Z" fill="black"/>
    <path d="M491.026 57.24C491.677 57.3787 492.2 57.704 492.594 58.216C492.989 58.7173 493.186 59.2933 493.186 59.944C493.186 60.8827 492.856 61.6293 492.194 62.184C491.544 62.728 490.632 63 489.458 63H484.226V51.768H489.282C490.424 51.768 491.314 52.0293 491.954 52.552C492.605 53.0747 492.93 53.784 492.93 54.68C492.93 55.3413 492.754 55.8907 492.402 56.328C492.061 56.7653 491.602 57.0693 491.026 57.24ZM486.962 56.312H488.754C489.202 56.312 489.544 56.216 489.778 56.024C490.024 55.8213 490.146 55.528 490.146 55.144C490.146 54.76 490.024 54.4667 489.778 54.264C489.544 54.0613 489.202 53.96 488.754 53.96H486.962V56.312ZM488.978 60.792C489.437 60.792 489.789 60.6907 490.034 60.488C490.29 60.2747 490.418 59.9707 490.418 59.576C490.418 59.1813 490.285 58.872 490.018 58.648C489.762 58.424 489.405 58.312 488.946 58.312H486.962V60.792H488.978ZM497.509 55.56C497.829 55.0693 498.229 54.6853 498.709 54.408C499.189 54.12 499.723 53.976 500.309 53.976V56.872H499.557C498.875 56.872 498.363 57.0213 498.021 57.32C497.68 57.608 497.509 58.12 497.509 58.856V63H494.773V54.072H497.509V55.56ZM510.033 58.392C510.033 58.648 510.017 58.9147 509.985 59.192H503.793C503.836 59.7467 504.012 60.1733 504.321 60.472C504.641 60.76 505.03 60.904 505.489 60.904C506.172 60.904 506.646 60.616 506.913 60.04H509.825C509.676 60.6267 509.404 61.1547 509.009 61.624C508.625 62.0933 508.14 62.4613 507.553 62.728C506.966 62.9947 506.31 63.128 505.585 63.128C504.71 63.128 503.932 62.9413 503.249 62.568C502.566 62.1947 502.033 61.6613 501.649 60.968C501.265 60.2747 501.073 59.464 501.073 58.536C501.073 57.608 501.26 56.7973 501.633 56.104C502.017 55.4107 502.55 54.8773 503.233 54.504C503.916 54.1307 504.7 53.944 505.585 53.944C506.449 53.944 507.217 54.1253 507.889 54.488C508.561 54.8507 509.084 55.368 509.457 56.04C509.841 56.712 510.033 57.496 510.033 58.392ZM507.233 57.672C507.233 57.2027 507.073 56.8293 506.753 56.552C506.433 56.2747 506.033 56.136 505.553 56.136C505.094 56.136 504.705 56.2693 504.385 56.536C504.076 56.8027 503.884 57.1813 503.809 57.672H507.233ZM510.932 58.52C510.932 57.6027 511.103 56.7973 511.444 56.104C511.796 55.4107 512.271 54.8773 512.868 54.504C513.466 54.1307 514.132 53.944 514.868 53.944C515.498 53.944 516.047 54.072 516.516 54.328C516.996 54.584 517.364 54.92 517.62 55.336V54.072H520.356V63H517.62V61.736C517.354 62.152 516.98 62.488 516.5 62.744C516.031 63 515.482 63.128 514.852 63.128C514.127 63.128 513.466 62.9413 512.868 62.568C512.271 62.184 511.796 61.6453 511.444 60.952C511.103 60.248 510.932 59.4373 510.932 58.52ZM517.62 58.536C517.62 57.8533 517.428 57.3147 517.044 56.92C516.671 56.5253 516.212 56.328 515.668 56.328C515.124 56.328 514.66 56.5253 514.276 56.92C513.903 57.304 513.716 57.8373 513.716 58.52C513.716 59.2027 513.903 59.7467 514.276 60.152C514.66 60.5467 515.124 60.744 515.668 60.744C516.212 60.744 516.671 60.5467 517.044 60.152C517.428 59.7573 517.62 59.2187 517.62 58.536ZM527.792 63L525.072 59.256V63H522.336V51.16H525.072V57.704L527.776 54.072H531.152L527.44 58.552L531.184 63H527.792ZM539.538 51.768V53.96H534.962V56.328H538.386V58.456H534.962V63H532.226V51.768H539.538ZM543.712 55.56C544.032 55.0693 544.432 54.6853 544.912 54.408C545.392 54.12 545.926 53.976 546.512 53.976V56.872H545.76C545.078 56.872 544.566 57.0213 544.224 57.32C543.883 57.608 543.712 58.12 543.712 58.856V63H540.976V54.072H543.712V55.56ZM556.236 58.392C556.236 58.648 556.22 58.9147 556.188 59.192H549.996C550.039 59.7467 550.215 60.1733 550.524 60.472C550.844 60.76 551.233 60.904 551.692 60.904C552.375 60.904 552.849 60.616 553.116 60.04H556.028C555.879 60.6267 555.607 61.1547 555.212 61.624C554.828 62.0933 554.343 62.4613 553.756 62.728C553.169 62.9947 552.513 63.128 551.788 63.128C550.913 63.128 550.135 62.9413 549.452 62.568C548.769 62.1947 548.236 61.6613 547.852 60.968C547.468 60.2747 547.276 59.464 547.276 58.536C547.276 57.608 547.463 56.7973 547.836 56.104C548.22 55.4107 548.753 54.8773 549.436 54.504C550.119 54.1307 550.903 53.944 551.788 53.944C552.652 53.944 553.42 54.1253 554.092 54.488C554.764 54.8507 555.287 55.368 555.66 56.04C556.044 56.712 556.236 57.496 556.236 58.392ZM553.436 57.672C553.436 57.2027 553.276 56.8293 552.956 56.552C552.636 56.2747 552.236 56.136 551.756 56.136C551.297 56.136 550.908 56.2693 550.588 56.536C550.279 56.8027 550.087 57.1813 550.012 57.672H553.436ZM566.095 58.392C566.095 58.648 566.08 58.9147 566.048 59.192H559.856C559.898 59.7467 560.074 60.1733 560.384 60.472C560.704 60.76 561.093 60.904 561.552 60.904C562.234 60.904 562.709 60.616 562.976 60.04H565.888C565.738 60.6267 565.466 61.1547 565.072 61.624C564.688 62.0933 564.202 62.4613 563.616 62.728C563.029 62.9947 562.373 63.128 561.648 63.128C560.773 63.128 559.994 62.9413 559.312 62.568C558.629 62.1947 558.096 61.6613 557.712 60.968C557.328 60.2747 557.136 59.464 557.136 58.536C557.136 57.608 557.322 56.7973 557.696 56.104C558.08 55.4107 558.613 54.8773 559.296 54.504C559.978 54.1307 560.762 53.944 561.648 53.944C562.512 53.944 563.28 54.1253 563.952 54.488C564.624 54.8507 565.146 55.368 565.52 56.04C565.904 56.712 566.095 57.496 566.095 58.392ZM563.296 57.672C563.296 57.2027 563.136 56.8293 562.816 56.552C562.496 56.2747 562.096 56.136 561.616 56.136C561.157 56.136 560.768 56.2693 560.448 56.536C560.138 56.8027 559.946 57.1813 559.872 57.672H563.296ZM575.613 55.432H573.773V63H572.317V55.432H571.181V54.232H572.317V53.608C572.317 52.6267 572.567 51.912 573.069 51.464C573.581 51.0053 574.397 50.776 575.516 50.776V51.992C574.877 51.992 574.423 52.12 574.157 52.376C573.901 52.6213 573.773 53.032 573.773 53.608V54.232H575.613V55.432ZM578.766 55.656C579.022 55.1547 579.385 54.7653 579.854 54.488C580.334 54.2107 580.915 54.072 581.598 54.072V55.576H581.214C579.582 55.576 578.766 56.4613 578.766 58.232V63H577.31V54.232H578.766V55.656ZM587.103 63.144C586.282 63.144 585.535 62.9573 584.863 62.584C584.202 62.2107 583.679 61.6827 583.295 61C582.922 60.3067 582.735 59.5067 582.735 58.6C582.735 57.704 582.927 56.9147 583.311 56.232C583.706 55.5387 584.239 55.0107 584.911 54.648C585.583 54.2747 586.335 54.088 587.167 54.088C587.999 54.088 588.751 54.2747 589.423 54.648C590.095 55.0107 590.623 55.5333 591.007 56.216C591.402 56.8987 591.599 57.6933 591.599 58.6C591.599 59.5067 591.396 60.3067 590.991 61C590.596 61.6827 590.058 62.2107 589.375 62.584C588.692 62.9573 587.935 63.144 587.103 63.144ZM587.103 61.864C587.626 61.864 588.116 61.7413 588.575 61.496C589.034 61.2507 589.402 60.8827 589.679 60.392C589.967 59.9013 590.111 59.304 590.111 58.6C590.111 57.896 589.972 57.2987 589.695 56.808C589.418 56.3173 589.055 55.9547 588.607 55.72C588.159 55.4747 587.674 55.352 587.151 55.352C586.618 55.352 586.127 55.4747 585.679 55.72C585.242 55.9547 584.89 56.3173 584.623 56.808C584.356 57.2987 584.223 57.896 584.223 58.6C584.223 59.3147 584.351 59.9173 584.607 60.408C584.874 60.8987 585.226 61.2667 585.663 61.512C586.1 61.7467 586.58 61.864 587.103 61.864ZM604.057 54.072C604.74 54.072 605.348 54.216 605.881 54.504C606.415 54.7813 606.836 55.2027 607.145 55.768C607.455 56.3333 607.609 57.0213 607.609 57.832V63H606.169V58.04C606.169 57.1653 605.951 56.4987 605.513 56.04C605.087 55.5707 604.505 55.336 603.769 55.336C603.012 55.336 602.409 55.5813 601.961 56.072C601.513 56.552 601.289 57.2507 601.289 58.168V63H599.849V58.04C599.849 57.1653 599.631 56.4987 599.193 56.04C598.767 55.5707 598.185 55.336 597.449 55.336C596.692 55.336 596.089 55.5813 595.641 56.072C595.193 56.552 594.969 57.2507 594.969 58.168V63H593.513V54.232H594.969V55.496C595.257 55.0373 595.641 54.6853 596.121 54.44C596.612 54.1947 597.151 54.072 597.737 54.072C598.473 54.072 599.124 54.2373 599.689 54.568C600.255 54.8987 600.676 55.384 600.953 56.024C601.199 55.4053 601.604 54.9253 602.169 54.584C602.735 54.2427 603.364 54.072 604.057 54.072ZM489.211 79.432V84.6C489.211 85.0267 489.302 85.3307 489.483 85.512C489.664 85.6827 489.979 85.768 490.427 85.768H491.499V87H490.187C489.376 87 488.768 86.8133 488.363 86.44C487.958 86.0667 487.755 85.4533 487.755 84.6V79.432H486.619V78.232H487.755V76.024H489.211V78.232H491.499V79.432H489.211ZM497.615 78.072C498.277 78.072 498.874 78.216 499.407 78.504C499.941 78.7813 500.357 79.2027 500.655 79.768C500.965 80.3333 501.119 81.0213 501.119 81.832V87H499.679V82.04C499.679 81.1653 499.461 80.4987 499.023 80.04C498.586 79.5707 497.989 79.336 497.231 79.336C496.463 79.336 495.85 79.576 495.391 80.056C494.943 80.536 494.719 81.2347 494.719 82.152V87H493.263V75.16H494.719V79.48C495.007 79.032 495.402 78.6853 495.903 78.44C496.415 78.1947 496.986 78.072 497.615 78.072ZM511.498 82.28C511.498 82.5573 511.482 82.8507 511.45 83.16H504.442C504.495 84.024 504.788 84.7013 505.322 85.192C505.866 85.672 506.522 85.912 507.29 85.912C507.919 85.912 508.442 85.768 508.858 85.48C509.284 85.1813 509.583 84.7867 509.754 84.296H511.322C511.087 85.1387 510.618 85.8267 509.914 86.36C509.21 86.8827 508.335 87.144 507.29 87.144C506.458 87.144 505.711 86.9573 505.05 86.584C504.399 86.2107 503.887 85.6827 503.514 85C503.14 84.3067 502.954 83.5067 502.954 82.6C502.954 81.6933 503.135 80.8987 503.498 80.216C503.86 79.5333 504.367 79.0107 505.018 78.648C505.679 78.2747 506.436 78.088 507.29 78.088C508.122 78.088 508.858 78.2693 509.498 78.632C510.138 78.9947 510.628 79.496 510.97 80.136C511.322 80.7653 511.498 81.48 511.498 82.28ZM509.994 81.976C509.994 81.4213 509.871 80.9467 509.626 80.552C509.38 80.1467 509.044 79.8427 508.618 79.64C508.202 79.4267 507.738 79.32 507.226 79.32C506.49 79.32 505.86 79.5547 505.338 80.024C504.826 80.4933 504.532 81.144 504.458 81.976H509.994ZM520.789 87.144C520.117 87.144 519.514 87.032 518.981 86.808C518.448 86.5733 518.026 86.2533 517.717 85.848C517.408 85.432 517.237 84.9573 517.205 84.424H518.709C518.752 84.8613 518.954 85.2187 519.317 85.496C519.69 85.7733 520.176 85.912 520.773 85.912C521.328 85.912 521.765 85.7893 522.085 85.544C522.405 85.2987 522.565 84.9893 522.565 84.616C522.565 84.232 522.394 83.9493 522.053 83.768C521.712 83.576 521.184 83.3893 520.469 83.208C519.818 83.0373 519.285 82.8667 518.869 82.696C518.464 82.5147 518.112 82.2533 517.813 81.912C517.525 81.56 517.381 81.1013 517.381 80.536C517.381 80.088 517.514 79.6773 517.781 79.304C518.048 78.9307 518.426 78.6373 518.917 78.424C519.408 78.2 519.968 78.088 520.597 78.088C521.568 78.088 522.352 78.3333 522.949 78.824C523.546 79.3147 523.866 79.9867 523.909 80.84H522.453C522.421 80.3813 522.234 80.0133 521.893 79.736C521.562 79.4587 521.114 79.32 520.549 79.32C520.026 79.32 519.61 79.432 519.301 79.656C518.992 79.88 518.837 80.1733 518.837 80.536C518.837 80.824 518.928 81.064 519.109 81.256C519.301 81.4373 519.536 81.5867 519.813 81.704C520.101 81.8107 520.496 81.9333 520.997 82.072C521.626 82.2427 522.138 82.4133 522.533 82.584C522.928 82.744 523.264 82.9893 523.541 83.32C523.829 83.6507 523.978 84.0827 523.989 84.616C523.989 85.096 523.856 85.528 523.589 85.912C523.322 86.296 522.944 86.6 522.453 86.824C521.973 87.0373 521.418 87.144 520.789 87.144ZM530.397 78.072C531.058 78.072 531.655 78.216 532.189 78.504C532.722 78.7813 533.138 79.2027 533.437 79.768C533.746 80.3333 533.901 81.0213 533.901 81.832V87H532.461V82.04C532.461 81.1653 532.242 80.4987 531.805 80.04C531.367 79.5707 530.77 79.336 530.013 79.336C529.245 79.336 528.631 79.576 528.173 80.056C527.725 80.536 527.501 81.2347 527.501 82.152V87H526.045V75.16H527.501V79.48C527.789 79.032 528.183 78.6853 528.685 78.44C529.197 78.1947 529.767 78.072 530.397 78.072ZM535.735 82.584C535.735 81.688 535.916 80.904 536.279 80.232C536.642 79.5493 537.138 79.0213 537.767 78.648C538.407 78.2747 539.116 78.088 539.895 78.088C540.663 78.088 541.33 78.2533 541.895 78.584C542.46 78.9147 542.882 79.3307 543.159 79.832V78.232H544.631V87H543.159V85.368C542.871 85.88 542.439 86.3067 541.863 86.648C541.298 86.9787 540.636 87.144 539.879 87.144C539.1 87.144 538.396 86.952 537.767 86.568C537.138 86.184 536.642 85.6453 536.279 84.952C535.916 84.2587 535.735 83.4693 535.735 82.584ZM543.159 82.6C543.159 81.9387 543.026 81.3627 542.759 80.872C542.492 80.3813 542.13 80.008 541.671 79.752C541.223 79.4853 540.727 79.352 540.183 79.352C539.639 79.352 539.143 79.48 538.695 79.736C538.247 79.992 537.89 80.3653 537.623 80.856C537.356 81.3467 537.223 81.9227 537.223 82.584C537.223 83.256 537.356 83.8427 537.623 84.344C537.89 84.8347 538.247 85.2133 538.695 85.48C539.143 85.736 539.639 85.864 540.183 85.864C540.727 85.864 541.223 85.736 541.671 85.48C542.13 85.2133 542.492 84.8347 542.759 84.344C543.026 83.8427 543.159 83.2613 543.159 82.6ZM546.547 82.6C546.547 81.6933 546.729 80.904 547.091 80.232C547.454 79.5493 547.955 79.0213 548.595 78.648C549.246 78.2747 549.987 78.088 550.819 78.088C551.897 78.088 552.782 78.3493 553.475 78.872C554.179 79.3947 554.643 80.12 554.867 81.048H553.299C553.15 80.5147 552.857 80.0933 552.419 79.784C551.993 79.4747 551.459 79.32 550.819 79.32C549.987 79.32 549.315 79.608 548.803 80.184C548.291 80.7493 548.035 81.5547 548.035 82.6C548.035 83.656 548.291 84.472 548.803 85.048C549.315 85.624 549.987 85.912 550.819 85.912C551.459 85.912 551.993 85.7627 552.419 85.464C552.846 85.1653 553.139 84.7387 553.299 84.184H554.867C554.633 85.08 554.163 85.8 553.459 86.344C552.755 86.8773 551.875 87.144 550.819 87.144C549.987 87.144 549.246 86.9573 548.595 86.584C547.955 86.2107 547.454 85.6827 547.091 85C546.729 84.3173 546.547 83.5173 546.547 82.6ZM561.706 87L558.266 83.128V87H556.81V75.16H558.266V82.12L561.642 78.232H563.674L559.546 82.6L563.69 87H561.706ZM566.501 75.16V87H565.045V75.16H566.501ZM576.982 82.28C576.982 82.5573 576.966 82.8507 576.934 83.16H569.926C569.979 84.024 570.273 84.7013 570.806 85.192C571.35 85.672 572.006 85.912 572.774 85.912C573.403 85.912 573.926 85.768 574.342 85.48C574.769 85.1813 575.067 84.7867 575.238 84.296H576.806C576.571 85.1387 576.102 85.8267 575.398 86.36C574.694 86.8827 573.819 87.144 572.774 87.144C571.942 87.144 571.195 86.9573 570.534 86.584C569.883 86.2107 569.371 85.6827 568.998 85C568.625 84.3067 568.438 83.5067 568.438 82.6C568.438 81.6933 568.619 80.8987 568.982 80.216C569.345 79.5333 569.851 79.0107 570.502 78.648C571.163 78.2747 571.921 78.088 572.774 78.088C573.606 78.088 574.342 78.2693 574.982 78.632C575.622 78.9947 576.113 79.496 576.454 80.136C576.806 80.7653 576.982 81.48 576.982 82.28ZM575.478 81.976C575.478 81.4213 575.355 80.9467 575.11 80.552C574.865 80.1467 574.529 79.8427 574.102 79.64C573.686 79.4267 573.222 79.32 572.71 79.32C571.974 79.32 571.345 79.5547 570.822 80.024C570.31 80.4933 570.017 81.144 569.942 81.976H575.478ZM582.008 87.144C581.336 87.144 580.733 87.032 580.2 86.808C579.667 86.5733 579.245 86.2533 578.936 85.848C578.627 85.432 578.456 84.9573 578.424 84.424H579.928C579.971 84.8613 580.173 85.2187 580.536 85.496C580.909 85.7733 581.395 85.912 581.992 85.912C582.547 85.912 582.984 85.7893 583.304 85.544C583.624 85.2987 583.784 84.9893 583.784 84.616C583.784 84.232 583.613 83.9493 583.272 83.768C582.931 83.576 582.403 83.3893 581.688 83.208C581.037 83.0373 580.504 82.8667 580.088 82.696C579.683 82.5147 579.331 82.2533 579.032 81.912C578.744 81.56 578.6 81.1013 578.6 80.536C578.6 80.088 578.733 79.6773 579 79.304C579.267 78.9307 579.645 78.6373 580.136 78.424C580.627 78.2 581.187 78.088 581.816 78.088C582.787 78.088 583.571 78.3333 584.168 78.824C584.765 79.3147 585.085 79.9867 585.128 80.84H583.672C583.64 80.3813 583.453 80.0133 583.112 79.736C582.781 79.4587 582.333 79.32 581.768 79.32C581.245 79.32 580.829 79.432 580.52 79.656C580.211 79.88 580.056 80.1733 580.056 80.536C580.056 80.824 580.147 81.064 580.328 81.256C580.52 81.4373 580.755 81.5867 581.032 81.704C581.32 81.8107 581.715 81.9333 582.216 82.072C582.845 82.2427 583.357 82.4133 583.752 82.584C584.147 82.744 584.483 82.9893 584.76 83.32C585.048 83.6507 585.197 84.0827 585.208 84.616C585.208 85.096 585.075 85.528 584.808 85.912C584.541 86.296 584.163 86.6 583.672 86.824C583.192 87.0373 582.637 87.144 582.008 87.144ZM595.353 87.144C594.532 87.144 593.785 86.9573 593.113 86.584C592.452 86.2107 591.929 85.6827 591.545 85C591.172 84.3067 590.985 83.5067 590.985 82.6C590.985 81.704 591.177 80.9147 591.561 80.232C591.956 79.5387 592.489 79.0107 593.161 78.648C593.833 78.2747 594.585 78.088 595.417 78.088C596.249 78.088 597.001 78.2747 597.673 78.648C598.345 79.0107 598.873 79.5333 599.257 80.216C599.652 80.8987 599.849 81.6933 599.849 82.6C599.849 83.5067 599.646 84.3067 599.241 85C598.846 85.6827 598.308 86.2107 597.625 86.584C596.942 86.9573 596.185 87.144 595.353 87.144ZM595.353 85.864C595.876 85.864 596.366 85.7413 596.825 85.496C597.284 85.2507 597.652 84.8827 597.929 84.392C598.217 83.9013 598.361 83.304 598.361 82.6C598.361 81.896 598.222 81.2987 597.945 80.808C597.668 80.3173 597.305 79.9547 596.857 79.72C596.409 79.4747 595.924 79.352 595.401 79.352C594.868 79.352 594.377 79.4747 593.929 79.72C593.492 79.9547 593.14 80.3173 592.873 80.808C592.606 81.2987 592.473 81.896 592.473 82.6C592.473 83.3147 592.601 83.9173 592.857 84.408C593.124 84.8987 593.476 85.2667 593.913 85.512C594.35 85.7467 594.83 85.864 595.353 85.864ZM605.331 79.432H603.491V87H602.035V79.432H600.899V78.232H602.035V77.608C602.035 76.6267 602.286 75.912 602.787 75.464C603.299 75.0053 604.115 74.776 605.235 74.776V75.992C604.595 75.992 604.142 76.12 603.875 76.376C603.619 76.6213 603.491 77.032 603.491 77.608V78.232H605.331V79.432ZM496.336 111.144C495.664 111.144 495.061 111.032 494.528 110.808C493.995 110.573 493.573 110.253 493.264 109.848C492.955 109.432 492.784 108.957 492.752 108.424H494.256C494.299 108.861 494.501 109.219 494.864 109.496C495.237 109.773 495.723 109.912 496.32 109.912C496.875 109.912 497.312 109.789 497.632 109.544C497.952 109.299 498.112 108.989 498.112 108.616C498.112 108.232 497.941 107.949 497.6 107.768C497.259 107.576 496.731 107.389 496.016 107.208C495.365 107.037 494.832 106.867 494.416 106.696C494.011 106.515 493.659 106.253 493.36 105.912C493.072 105.56 492.928 105.101 492.928 104.536C492.928 104.088 493.061 103.677 493.328 103.304C493.595 102.931 493.973 102.637 494.464 102.424C494.955 102.2 495.515 102.088 496.144 102.088C497.115 102.088 497.899 102.333 498.496 102.824C499.093 103.315 499.413 103.987 499.456 104.84H498C497.968 104.381 497.781 104.013 497.44 103.736C497.109 103.459 496.661 103.32 496.096 103.32C495.573 103.32 495.157 103.432 494.848 103.656C494.539 103.88 494.384 104.173 494.384 104.536C494.384 104.824 494.475 105.064 494.656 105.256C494.848 105.437 495.083 105.587 495.36 105.704C495.648 105.811 496.043 105.933 496.544 106.072C497.173 106.243 497.685 106.413 498.08 106.584C498.475 106.744 498.811 106.989 499.088 107.32C499.376 107.651 499.525 108.083 499.536 108.616C499.536 109.096 499.403 109.528 499.136 109.912C498.869 110.296 498.491 110.6 498 110.824C497.52 111.037 496.965 111.144 496.336 111.144ZM505.415 111.144C504.594 111.144 503.847 110.957 503.175 110.584C502.514 110.211 501.991 109.683 501.607 109C501.234 108.307 501.047 107.507 501.047 106.6C501.047 105.704 501.239 104.915 501.623 104.232C502.018 103.539 502.551 103.011 503.223 102.648C503.895 102.275 504.647 102.088 505.479 102.088C506.311 102.088 507.063 102.275 507.735 102.648C508.407 103.011 508.935 103.533 509.319 104.216C509.714 104.899 509.911 105.693 509.911 106.6C509.911 107.507 509.709 108.307 509.303 109C508.909 109.683 508.37 110.211 507.687 110.584C507.005 110.957 506.247 111.144 505.415 111.144ZM505.415 109.864C505.938 109.864 506.429 109.741 506.887 109.496C507.346 109.251 507.714 108.883 507.991 108.392C508.279 107.901 508.423 107.304 508.423 106.6C508.423 105.896 508.285 105.299 508.007 104.808C507.73 104.317 507.367 103.955 506.919 103.72C506.471 103.475 505.986 103.352 505.463 103.352C504.93 103.352 504.439 103.475 503.991 103.72C503.554 103.955 503.202 104.317 502.935 104.808C502.669 105.299 502.535 105.896 502.535 106.6C502.535 107.315 502.663 107.917 502.919 108.408C503.186 108.899 503.538 109.267 503.975 109.512C504.413 109.747 504.893 109.864 505.415 109.864ZM511.282 106.6C511.282 105.693 511.463 104.904 511.826 104.232C512.188 103.549 512.69 103.021 513.33 102.648C513.98 102.275 514.722 102.088 515.554 102.088C516.631 102.088 517.516 102.349 518.21 102.872C518.914 103.395 519.378 104.12 519.602 105.048H518.034C517.884 104.515 517.591 104.093 517.154 103.784C516.727 103.475 516.194 103.32 515.554 103.32C514.722 103.32 514.05 103.608 513.538 104.184C513.026 104.749 512.77 105.555 512.77 106.6C512.77 107.656 513.026 108.472 513.538 109.048C514.05 109.624 514.722 109.912 515.554 109.912C516.194 109.912 516.727 109.763 517.154 109.464C517.58 109.165 517.874 108.739 518.034 108.184H519.602C519.367 109.08 518.898 109.8 518.194 110.344C517.49 110.877 516.61 111.144 515.554 111.144C514.722 111.144 513.98 110.957 513.33 110.584C512.69 110.211 512.188 109.683 511.826 109C511.463 108.317 511.282 107.517 511.282 106.6ZM522.297 100.808C522.019 100.808 521.785 100.712 521.593 100.52C521.401 100.328 521.305 100.093 521.305 99.816C521.305 99.5387 521.401 99.304 521.593 99.112C521.785 98.92 522.019 98.824 522.297 98.824C522.563 98.824 522.787 98.92 522.969 99.112C523.161 99.304 523.257 99.5387 523.257 99.816C523.257 100.093 523.161 100.328 522.969 100.52C522.787 100.712 522.563 100.808 522.297 100.808ZM523.001 102.232V111H521.545V102.232H523.001ZM524.938 106.584C524.938 105.688 525.119 104.904 525.482 104.232C525.845 103.549 526.341 103.021 526.97 102.648C527.61 102.275 528.319 102.088 529.098 102.088C529.866 102.088 530.533 102.253 531.098 102.584C531.663 102.915 532.085 103.331 532.362 103.832V102.232H533.834V111H532.362V109.368C532.074 109.88 531.642 110.307 531.066 110.648C530.501 110.979 529.839 111.144 529.082 111.144C528.303 111.144 527.599 110.952 526.97 110.568C526.341 110.184 525.845 109.645 525.482 108.952C525.119 108.259 524.938 107.469 524.938 106.584ZM532.362 106.6C532.362 105.939 532.229 105.363 531.962 104.872C531.695 104.381 531.333 104.008 530.874 103.752C530.426 103.485 529.93 103.352 529.386 103.352C528.842 103.352 528.346 103.48 527.898 103.736C527.45 103.992 527.093 104.365 526.826 104.856C526.559 105.347 526.426 105.923 526.426 106.584C526.426 107.256 526.559 107.843 526.826 108.344C527.093 108.835 527.45 109.213 527.898 109.48C528.346 109.736 528.842 109.864 529.386 109.864C529.93 109.864 530.426 109.736 530.874 109.48C531.333 109.213 531.695 108.835 531.962 108.344C532.229 107.843 532.362 107.261 532.362 106.6ZM537.751 99.16V111H536.295V99.16H537.751ZM555.042 102.072C555.724 102.072 556.332 102.216 556.866 102.504C557.399 102.781 557.82 103.203 558.13 103.768C558.439 104.333 558.594 105.021 558.594 105.832V111H557.154V106.04C557.154 105.165 556.935 104.499 556.498 104.04C556.071 103.571 555.49 103.336 554.754 103.336C553.996 103.336 553.394 103.581 552.946 104.072C552.498 104.552 552.274 105.251 552.274 106.168V111H550.834V106.04C550.834 105.165 550.615 104.499 550.178 104.04C549.751 103.571 549.17 103.336 548.434 103.336C547.676 103.336 547.074 103.581 546.626 104.072C546.178 104.552 545.954 105.251 545.954 106.168V111H544.498V102.232H545.954V103.496C546.242 103.037 546.626 102.685 547.106 102.44C547.596 102.195 548.135 102.072 548.722 102.072C549.458 102.072 550.108 102.237 550.674 102.568C551.239 102.899 551.66 103.384 551.938 104.024C552.183 103.405 552.588 102.925 553.154 102.584C553.719 102.243 554.348 102.072 555.042 102.072ZM568.982 106.28C568.982 106.557 568.966 106.851 568.934 107.16H561.926C561.979 108.024 562.273 108.701 562.806 109.192C563.35 109.672 564.006 109.912 564.774 109.912C565.403 109.912 565.926 109.768 566.342 109.48C566.769 109.181 567.067 108.787 567.238 108.296H568.806C568.571 109.139 568.102 109.827 567.398 110.36C566.694 110.883 565.819 111.144 564.774 111.144C563.942 111.144 563.195 110.957 562.534 110.584C561.883 110.211 561.371 109.683 560.998 109C560.625 108.307 560.438 107.507 560.438 106.6C560.438 105.693 560.619 104.899 560.982 104.216C561.345 103.533 561.851 103.011 562.502 102.648C563.163 102.275 563.921 102.088 564.774 102.088C565.606 102.088 566.342 102.269 566.982 102.632C567.622 102.995 568.113 103.496 568.454 104.136C568.806 104.765 568.982 105.48 568.982 106.28ZM567.478 105.976C567.478 105.421 567.355 104.947 567.11 104.552C566.865 104.147 566.529 103.843 566.102 103.64C565.686 103.427 565.222 103.32 564.71 103.32C563.974 103.32 563.345 103.555 562.822 104.024C562.31 104.493 562.017 105.144 561.942 105.976H567.478ZM570.36 106.584C570.36 105.688 570.541 104.904 570.904 104.232C571.267 103.549 571.763 103.021 572.392 102.648C573.032 102.275 573.747 102.088 574.536 102.088C575.219 102.088 575.853 102.248 576.44 102.568C577.027 102.877 577.475 103.288 577.784 103.8V99.16H579.256V111H577.784V109.352C577.496 109.875 577.069 110.307 576.504 110.648C575.939 110.979 575.277 111.144 574.52 111.144C573.741 111.144 573.032 110.952 572.392 110.568C571.763 110.184 571.267 109.645 570.904 108.952C570.541 108.259 570.36 107.469 570.36 106.584ZM577.784 106.6C577.784 105.939 577.651 105.363 577.384 104.872C577.117 104.381 576.755 104.008 576.296 103.752C575.848 103.485 575.352 103.352 574.808 103.352C574.264 103.352 573.768 103.48 573.32 103.736C572.872 103.992 572.515 104.365 572.248 104.856C571.981 105.347 571.848 105.923 571.848 106.584C571.848 107.256 571.981 107.843 572.248 108.344C572.515 108.835 572.872 109.213 573.32 109.48C573.768 109.736 574.264 109.864 574.808 109.864C575.352 109.864 575.848 109.736 576.296 109.48C576.755 109.213 577.117 108.835 577.384 108.344C577.651 107.843 577.784 107.261 577.784 106.6ZM582.468 100.808C582.191 100.808 581.956 100.712 581.764 100.52C581.572 100.328 581.476 100.093 581.476 99.816C581.476 99.5387 581.572 99.304 581.764 99.112C581.956 98.92 582.191 98.824 582.468 98.824C582.735 98.824 582.959 98.92 583.14 99.112C583.332 99.304 583.428 99.5387 583.428 99.816C583.428 100.093 583.332 100.328 583.14 100.52C582.959 100.712 582.735 100.808 582.468 100.808ZM583.172 102.232V111H581.716V102.232H583.172ZM585.11 106.584C585.11 105.688 585.291 104.904 585.654 104.232C586.017 103.549 586.513 103.021 587.142 102.648C587.782 102.275 588.491 102.088 589.27 102.088C590.038 102.088 590.705 102.253 591.27 102.584C591.835 102.915 592.257 103.331 592.534 103.832V102.232H594.006V111H592.534V109.368C592.246 109.88 591.814 110.307 591.238 110.648C590.673 110.979 590.011 111.144 589.254 111.144C588.475 111.144 587.771 110.952 587.142 110.568C586.513 110.184 586.017 109.645 585.654 108.952C585.291 108.259 585.11 107.469 585.11 106.584ZM592.534 106.6C592.534 105.939 592.401 105.363 592.134 104.872C591.867 104.381 591.505 104.008 591.046 103.752C590.598 103.485 590.102 103.352 589.558 103.352C589.014 103.352 588.518 103.48 588.07 103.736C587.622 103.992 587.265 104.365 586.998 104.856C586.731 105.347 586.598 105.923 586.598 106.584C586.598 107.256 586.731 107.843 586.998 108.344C587.265 108.835 587.622 109.213 588.07 109.48C588.518 109.736 589.014 109.864 589.558 109.864C590.102 109.864 590.598 109.736 591.046 109.48C591.505 109.213 591.867 108.835 592.134 108.344C592.401 107.843 592.534 107.261 592.534 106.6ZM598.354 99.848L598.178 107.848H596.962L596.786 99.848H598.354ZM597.634 111.096C597.357 111.096 597.122 111 596.93 110.808C596.738 110.616 596.642 110.381 596.642 110.104C596.642 109.827 596.738 109.592 596.93 109.4C597.122 109.208 597.357 109.112 597.634 109.112C597.901 109.112 598.125 109.208 598.306 109.4C598.498 109.592 598.594 109.827 598.594 110.104C598.594 110.381 598.498 110.616 598.306 110.808C598.125 111 597.901 111.096 597.634 111.096Z" fill="black"/>
    <path d="M303.194 31.712C303.738 31.28 303.986 31.08 303.938 31.112C305.506 29.816 306.738 28.752 307.634 27.92C308.546 27.088 309.314 26.216 309.938 25.304C310.562 24.392 310.874 23.504 310.874 22.64C310.874 21.984 310.722 21.472 310.418 21.104C310.114 20.736 309.658 20.552 309.05 20.552C308.442 20.552 307.962 20.784 307.61 21.248C307.274 21.696 307.106 22.336 307.106 23.168H303.146C303.178 21.808 303.466 20.672 304.01 19.76C304.57 18.848 305.298 18.176 306.194 17.744C307.106 17.312 308.114 17.096 309.218 17.096C311.122 17.096 312.554 17.584 313.514 18.56C314.49 19.536 314.978 20.808 314.978 22.376C314.978 24.088 314.394 25.68 313.226 27.152C312.058 28.608 310.57 30.032 308.762 31.424H315.242V34.76H303.194V31.712ZM319.377 35.192C318.657 35.192 318.065 34.984 317.601 34.568C317.153 34.136 316.929 33.608 316.929 32.984C316.929 32.344 317.153 31.808 317.601 31.376C318.065 30.944 318.657 30.728 319.377 30.728C320.081 30.728 320.657 30.944 321.105 31.376C321.569 31.808 321.801 32.344 321.801 32.984C321.801 33.608 321.569 34.136 321.105 34.568C320.657 34.984 320.081 35.192 319.377 35.192Z" fill="black"/>
    <path d="M536.572 22.424C536.636 20.712 537.196 19.392 538.252 18.464C539.308 17.536 540.74 17.072 542.548 17.072C543.748 17.072 544.772 17.28 545.62 17.696C546.484 18.112 547.132 18.68 547.564 19.4C548.012 20.12 548.236 20.928 548.236 21.824C548.236 22.88 547.972 23.744 547.444 24.416C546.916 25.072 546.3 25.52 545.596 25.76V25.856C546.508 26.16 547.228 26.664 547.756 27.368C548.284 28.072 548.548 28.976 548.548 30.08C548.548 31.072 548.316 31.952 547.852 32.72C547.404 33.472 546.74 34.064 545.86 34.496C544.996 34.928 543.964 35.144 542.764 35.144C540.844 35.144 539.308 34.672 538.156 33.728C537.02 32.784 536.42 31.36 536.356 29.456H540.34C540.356 30.16 540.556 30.72 540.94 31.136C541.324 31.536 541.884 31.736 542.62 31.736C543.244 31.736 543.724 31.56 544.06 31.208C544.412 30.84 544.588 30.36 544.588 29.768C544.588 29 544.34 28.448 543.844 28.112C543.364 27.76 542.588 27.584 541.516 27.584H540.748V24.248H541.516C542.332 24.248 542.988 24.112 543.484 23.84C543.996 23.552 544.252 23.048 544.252 22.328C544.252 21.752 544.092 21.304 543.772 20.984C543.452 20.664 543.012 20.504 542.452 20.504C541.844 20.504 541.388 20.688 541.084 21.056C540.796 21.424 540.628 21.88 540.58 22.424H536.572ZM553.287 35.192C552.567 35.192 551.975 34.984 551.511 34.568C551.063 34.136 550.839 33.608 550.839 32.984C550.839 32.344 551.063 31.808 551.511 31.376C551.975 30.944 552.567 30.728 553.287 30.728C553.991 30.728 554.567 30.944 555.015 31.376C555.479 31.808 555.711 32.344 555.711 32.984C555.711 33.608 555.479 34.136 555.015 34.568C554.567 34.984 553.991 35.192 553.287 35.192Z" fill="black"/>
    <path d="M72.7496 21.296V17.48H79.3976V35H75.1256V21.296H72.7496ZM84.533 35.192C83.813 35.192 83.221 34.984 82.757 34.568C82.309 34.136 82.085 33.608 82.085 32.984C82.085 32.344 82.309 31.808 82.757 31.376C83.221 30.944 83.813 30.728 84.533 30.728C85.237 30.728 85.813 30.944 86.261 31.376C86.725 31.808 86.957 32.344 86.957 32.984C86.957 33.608 86.725 34.136 86.261 34.568C85.813 34.984 85.237 35.192 84.533 35.192Z" fill="black"/>
    </svg>
    